<svg width="65" height="65" viewBox="0 0 65 65" fill="none" xmlns="http://www.w3.org/2000/svg">
<circle cx="32.5" cy="32.5" r="32" fill="#FFB891" fill-opacity="0.2" stroke="#FFB891"/>
<path d="M25.2197 21.3223C27.2249 19.3171 29.6403 18.3145 32.4658 18.3145C35.2913 18.3145 37.7067 19.3171 39.7119 21.3223C41.7171 23.2819 42.7197 25.6745 42.7197 28.5C42.7197 29.9128 42.3551 31.5534 41.626 33.4219C40.9424 35.2448 40.0993 36.9538 39.0967 38.5488C38.0941 40.0983 37.0915 41.5794 36.0889 42.9922C35.0863 44.3594 34.2432 45.4531 33.5596 46.2734L32.4658 47.4355C32.1924 47.1621 31.8278 46.752 31.3721 46.2051C30.9163 45.6582 30.096 44.61 28.9111 43.0605C27.7718 41.4655 26.7464 39.9388 25.835 38.4805C24.9235 36.9766 24.1032 35.2904 23.374 33.4219C22.6449 31.5534 22.2803 29.9128 22.2803 28.5C22.2803 25.6745 23.2601 23.2819 25.2197 21.3223ZM29.8682 31.0977C30.5973 31.7812 31.4632 32.123 32.4658 32.123C33.4684 32.123 34.3343 31.7812 35.0635 31.0977C35.7926 30.3685 36.1572 29.5026 36.1572 28.5C36.1572 27.4974 35.7926 26.6543 35.0635 25.9707C34.3343 25.2415 33.4684 24.877 32.4658 24.877C31.4632 24.877 30.5973 25.2415 29.8682 25.9707C29.1846 26.6543 28.8428 27.4974 28.8428 28.5C28.8428 29.5026 29.1846 30.3685 29.8682 31.0977Z" fill="white"/>
</svg>
