<svg width="55" height="55" viewBox="0 0 55 55" fill="none" xmlns="http://www.w3.org/2000/svg">
<circle cx="27.5" cy="27.5" r="27" fill="#080A0F" stroke="#FFB891"/>
<path d="M22.2998 19.373C23.7321 17.9408 25.4574 17.2246 27.4756 17.2246C29.4938 17.2246 31.2191 17.9408 32.6514 19.373C34.0837 20.7728 34.7998 22.4818 34.7998 24.5C34.7998 25.5091 34.5394 26.681 34.0186 28.0156C33.5303 29.3177 32.9281 30.5384 32.2119 31.6777C31.4958 32.7845 30.7796 33.8424 30.0635 34.8516C29.3473 35.8281 28.7451 36.6094 28.2568 37.1953L27.4756 38.0254C27.2803 37.8301 27.0199 37.5371 26.6943 37.1465C26.3688 36.7559 25.7829 36.0072 24.9365 34.9004C24.1227 33.7611 23.3903 32.6706 22.7393 31.6289C22.0882 30.5547 21.5023 29.3503 20.9814 28.0156C20.4606 26.681 20.2002 25.5091 20.2002 24.5C20.2002 22.4818 20.9001 20.7728 22.2998 19.373ZM25.6201 26.3555C26.141 26.8437 26.7594 27.0879 27.4756 27.0879C28.1917 27.0879 28.8102 26.8437 29.3311 26.3555C29.8519 25.8346 30.1123 25.2161 30.1123 24.5C30.1123 23.7839 29.8519 23.1816 29.3311 22.6934C28.8102 22.1725 28.1917 21.9121 27.4756 21.9121C26.7594 21.9121 26.141 22.1725 25.6201 22.6934C25.1318 23.1816 24.8877 23.7839 24.8877 24.5C24.8877 25.2161 25.1318 25.8346 25.6201 26.3555Z" fill="#FFB891"/>
</svg>
