<svg width="207" height="207" viewBox="0 0 207 207" fill="none" xmlns="http://www.w3.org/2000/svg">
<path d="M66.2176 25.6767C64.582 25.5074 63.1155 24.9431 61.7618 23.9837C60.4645 23.0244 59.4493 21.7264 58.716 20.1463C57.9828 18.5662 57.7572 16.9297 57.9264 15.2931C58.0956 13.6566 58.716 12.1894 59.7313 10.8914C60.7465 9.59347 62.1002 8.57768 63.7359 7.84406C64.9768 7.27973 66.2176 6.99757 67.4021 6.94114C68.643 6.88471 69.7711 7.11044 70.8427 7.5619L70.2787 9.25487C68.4174 8.52125 66.4997 8.57768 64.4691 9.42417C63.1719 9.98849 62.1002 10.835 61.2542 11.9072C60.4645 12.9794 59.9569 14.1645 59.7877 15.4624C59.6185 16.7604 59.8441 18.0583 60.4081 19.3563C60.9721 20.6542 61.8182 21.67 62.8335 22.4601C63.9051 23.2501 65.0896 23.7016 66.4433 23.8145C67.7969 23.9273 69.0942 23.7016 70.4479 23.1373C72.422 22.2908 73.7757 20.88 74.5089 18.9613L76.0882 19.582C75.6934 20.7107 75.073 21.67 74.2269 22.5729C73.3809 23.4759 72.3092 24.153 71.0683 24.7174C69.489 25.5639 67.8533 25.846 66.2176 25.6767Z" fill="white"/>
<path d="M95.6036 0L98.5929 17.9455L96.788 18.2277L94.3627 3.89384L89.3428 17.1555L88.4403 17.3248L79.4158 6.54617L81.8412 20.8236L80.0363 21.1057L77.0469 3.16022L78.6262 2.87806L88.666 14.8417L94.1371 0.282162L95.6036 0Z" fill="white"/>
<path d="M106.827 17.1553C105.474 16.196 104.402 15.0109 103.725 13.5437C103.048 12.0764 102.766 10.4399 102.936 8.74691C103.105 6.9975 103.669 5.47382 104.628 4.17588C105.587 2.87793 106.827 1.86215 108.35 1.18496C109.873 0.507768 111.565 0.282038 113.314 0.451335C115.119 0.620632 116.698 1.18496 118.052 2.08788C119.405 2.9908 120.421 4.23231 121.154 5.69955C121.887 7.1668 122.113 8.80334 121.944 10.5527C121.774 12.3022 121.21 13.8258 120.251 15.1802C119.293 16.5346 118.052 17.4939 116.529 18.1711C115.006 18.8483 113.37 19.074 111.565 18.9047C109.817 18.6226 108.238 18.1147 106.827 17.1553ZM115.739 16.4782C116.98 15.9138 117.939 15.1238 118.729 14.0516C119.518 12.9793 119.913 11.7378 120.082 10.327C120.195 8.9162 120.026 7.61826 119.462 6.37674C118.898 5.19166 118.108 4.17588 116.98 3.44226C115.908 2.70863 114.611 2.25717 113.201 2.08788C111.791 1.91858 110.437 2.14431 109.196 2.70863C107.956 3.27296 106.997 4.06301 106.207 5.13523C105.417 6.20745 104.966 7.44896 104.853 8.85977C104.741 10.2706 104.91 11.5685 105.474 12.81C106.038 13.9951 106.884 15.0109 107.956 15.7445C109.084 16.4782 110.324 16.9296 111.735 17.0989C113.201 17.2682 114.498 17.0425 115.739 16.4782Z" fill="white"/>
<path d="M140.613 8.4644L134.521 6.60213L129.671 22.4032L127.866 21.8389L132.717 6.09424L126.625 4.23197L127.133 2.65186L141.121 6.99716L140.613 8.4644Z" fill="white"/>
<path d="M156.632 16.5344C157.252 18.1145 157.14 19.8075 156.237 21.5005C155.335 23.1934 154.037 24.2656 152.345 24.6042C150.653 24.9428 148.792 24.6042 146.761 23.4756L142.475 21.1619L139.767 26.2408L138.075 25.3379L146.592 9.31104L152.571 12.5277C154.658 13.5435 156.011 14.8979 156.632 16.5344ZM151.725 22.8548C152.909 22.6291 153.868 21.839 154.545 20.5975C155.222 19.2996 155.335 18.0581 154.883 16.9294C154.432 15.8008 153.361 14.785 151.781 13.9385L147.495 11.6812L143.208 19.6946L147.495 21.9519C149.074 22.7984 150.484 23.0806 151.725 22.8548Z" fill="white"/>
<path d="M164.077 40.8007L163.005 42.0987L153.078 33.9724L164.584 19.8643L174.229 27.7648L173.158 29.0628L165.036 22.4037L160.975 27.4262L168.251 33.3516L167.235 34.5931L159.959 28.6677L155.673 33.9159L164.077 40.8007Z" fill="white"/>
<path d="M185.623 43.0012L181.449 38.148L168.927 48.8702L167.687 47.403L180.208 36.6808L176.034 31.8276L177.275 30.7554L186.807 41.929L185.623 43.0012Z" fill="white"/>
<path d="M189.571 61.6811C189.289 63.1483 188.331 64.3334 186.695 65.2928C185.003 66.2521 183.423 66.4778 181.957 65.9135C180.49 65.3492 179.193 64.1077 178.065 62.1325L174.512 55.8685L190.305 46.8394L191.264 48.4759L185.623 51.6925L188.443 56.6586C189.459 58.5773 189.853 60.2138 189.571 61.6811ZM182.239 64.1641C183.311 64.5591 184.495 64.3898 185.736 63.6562C188.161 62.2454 188.5 60.101 186.808 57.1101L184.213 52.539L176.768 56.8279L179.362 61.3989C180.208 62.8097 181.167 63.7691 182.239 64.1641Z" fill="white"/>
<path d="M195.719 88.9377C195.155 89.7278 194.253 90.2921 193.068 90.5743C191.545 90.9129 190.248 90.6871 189.177 89.7842C188.105 88.8813 187.315 87.4141 186.808 85.2696L184.946 77.4255L202.601 73.2495L204.349 80.5857C204.8 82.448 204.744 84.0281 204.236 85.2696C203.729 86.5111 202.713 87.3012 201.247 87.6398C200.232 87.8655 199.329 87.8091 198.54 87.4705C197.75 87.1319 197.073 86.5111 196.509 85.7211C196.565 87.0755 196.283 88.1477 195.719 88.9377ZM192.786 88.712C194.986 88.2041 195.776 86.3983 195.043 83.3509L193.632 77.3691L186.864 78.9492L188.274 84.931C189.007 87.9784 190.474 89.2199 192.786 88.712ZM195.043 77.0305L196.34 82.448C196.678 83.8024 197.186 84.8182 197.919 85.3825C198.652 86.0033 199.555 86.1726 200.626 85.8904C201.698 85.6647 202.431 85.1003 202.77 84.1974C203.165 83.3509 203.165 82.2223 202.883 80.8679L201.585 75.4504L195.043 77.0305Z" fill="white"/>
<path d="M206.775 95.2012L206.831 97.1199L191.772 97.3456L207 108.745V110.494L188.839 110.777L188.782 108.858L203.786 108.632L188.557 97.2327V95.4833L206.775 95.2012Z" fill="white"/>
<path d="M186.018 132.278L180.434 130.98L180.828 129.23L184.777 130.133L188.33 114.671L184.382 113.711L184.777 111.962L190.361 113.26L190.135 114.163C189.909 115.348 190.643 116.364 192.335 117.21C194.027 118.057 196.452 118.96 199.724 119.806L205.42 121.33L202.656 133.293L186.582 129.569L186.018 132.278ZM192.73 119.355C191.037 118.621 190.022 117.774 189.627 116.872L187.089 127.763L201.528 131.093L203.503 122.628L199.216 121.499C196.565 120.822 194.365 120.088 192.73 119.355Z" fill="white"/>
<path d="M179.08 147.006L177.558 146.329L183.029 134.704L199.498 142.435L194.197 153.722L192.674 153.045L197.13 143.508L191.264 140.742L187.259 149.264L185.792 148.586L189.797 140.065L183.706 137.187L179.08 147.006Z" fill="white"/>
<path d="M174.906 152.199C176.429 151.522 178.009 151.296 179.644 151.522C181.28 151.747 182.746 152.368 184.157 153.44C185.567 154.513 186.526 155.811 187.146 157.278C187.766 158.745 187.936 160.382 187.654 162.018C187.372 163.655 186.751 165.178 185.623 166.646C184.551 168.056 183.198 169.129 181.731 169.749C180.265 170.37 178.629 170.652 177.05 170.427C175.414 170.201 173.948 169.58 172.537 168.508C171.127 167.436 170.169 166.138 169.548 164.614C168.928 163.09 168.758 161.51 168.984 159.874C169.21 158.237 169.887 156.713 171.015 155.303C172.086 153.892 173.384 152.82 174.906 152.199ZM170.733 160.043C170.563 161.341 170.676 162.639 171.184 163.824C171.691 165.065 172.537 166.081 173.609 166.984C174.737 167.831 175.978 168.395 177.275 168.564C178.573 168.734 179.87 168.564 181.054 168.056C182.295 167.548 183.311 166.702 184.213 165.573C185.115 164.445 185.623 163.203 185.849 161.905C186.074 160.607 185.905 159.309 185.397 158.068C184.89 156.826 184.1 155.811 182.972 154.908C181.844 154.061 180.603 153.497 179.306 153.327C178.009 153.158 176.711 153.328 175.47 153.835C174.23 154.343 173.214 155.19 172.312 156.318C171.466 157.504 170.902 158.745 170.733 160.043Z" fill="white"/>
<path d="M144.731 179.342C146.367 179.399 147.889 179.907 149.243 180.81C150.597 181.712 151.669 182.954 152.458 184.478C153.248 186.058 153.586 187.638 153.473 189.274C153.361 190.911 152.853 192.378 151.894 193.733C150.935 195.087 149.694 196.159 148.059 196.949C146.874 197.57 145.633 197.909 144.392 198.021C143.152 198.134 142.024 197.965 140.895 197.57L141.46 195.933C143.377 196.611 145.295 196.441 147.213 195.482C148.51 194.861 149.525 193.958 150.258 192.83C150.992 191.701 151.443 190.516 151.556 189.162C151.669 187.807 151.387 186.566 150.766 185.268C150.146 183.97 149.243 183.01 148.172 182.277C147.043 181.543 145.859 181.148 144.505 181.092C143.152 181.035 141.854 181.317 140.557 181.938C138.583 182.898 137.342 184.365 136.722 186.283L135.086 185.719C135.424 184.59 135.988 183.575 136.834 182.615C137.68 181.712 138.696 180.922 139.88 180.302C141.46 179.681 143.095 179.286 144.731 179.342Z" fill="white"/>
<path d="M116.642 206.487L112.75 188.767L114.555 188.372L117.657 202.593L122 189.106L122.903 188.936L132.491 199.263L129.389 185.155L131.194 184.76L135.086 202.48L133.563 202.819L122.959 191.363L118.221 206.205L116.642 206.487Z" fill="white"/>
<path d="M104.571 189.895C105.981 190.741 107.109 191.926 107.843 193.337C108.576 194.748 108.914 196.384 108.858 198.134C108.802 199.883 108.294 201.463 107.391 202.818C106.489 204.172 105.305 205.244 103.838 205.978C102.372 206.712 100.679 207.05 98.8745 206.994C97.0696 206.937 95.4903 206.429 94.0803 205.583C92.6702 204.736 91.5985 203.551 90.8089 202.141C90.0192 200.673 89.6808 199.093 89.7936 197.344C89.85 195.594 90.3576 194.014 91.2601 192.66C92.1625 191.305 93.347 190.233 94.8135 189.5C96.28 188.766 97.9157 188.427 99.7206 188.54C101.525 188.54 103.161 189.048 104.571 189.895ZM95.716 190.967C94.5315 191.588 93.5726 192.434 92.8958 193.563C92.1626 194.691 91.8241 195.933 91.7677 197.344C91.7113 198.755 91.9933 200.053 92.5574 201.238C93.1778 202.423 94.0239 203.382 95.1519 204.059C96.28 204.736 97.5773 205.131 98.9873 205.188C100.397 205.244 101.751 204.962 102.936 204.398C104.12 203.777 105.079 202.931 105.812 201.802C106.545 200.673 106.94 199.432 106.997 198.021C107.053 196.61 106.771 195.312 106.151 194.127C105.53 192.942 104.684 191.983 103.5 191.306C102.372 190.628 101.074 190.233 99.6642 190.177C98.2541 190.12 96.9004 190.403 95.716 190.967Z" fill="white"/>
<path d="M71.2369 200.279L77.4412 201.859L81.5022 185.889L83.3636 186.34L79.3025 202.311L85.5069 203.891L85.1121 205.527L70.8984 201.915L71.2369 200.279Z" fill="white"/>
<path d="M54.8808 192.999C54.1475 191.419 54.2039 189.783 55.05 188.033C55.896 186.284 57.1369 185.212 58.7726 184.76C60.4083 184.309 62.326 184.591 64.4129 185.607L68.8124 187.695L71.2377 182.503L72.9862 183.293L65.259 199.715L59.111 196.837C56.9677 195.877 55.5576 194.579 54.8808 192.999ZM59.4494 186.453C58.265 186.735 57.3625 187.582 56.7421 188.88C56.1216 190.234 56.0652 191.419 56.5729 192.548C57.0805 193.677 58.1522 194.579 59.7878 195.37L64.1309 197.401L67.9663 189.162L63.6233 187.13C62.044 186.397 60.6339 186.115 59.4494 186.453Z" fill="white"/>
<path d="M46.1943 169.128L47.1531 167.773L57.4749 175.392L46.7019 190.008L36.6621 182.615L37.621 181.261L46.0815 187.525L49.9169 182.333L42.3588 176.746L43.3177 175.448L50.8757 181.035L54.8804 175.618L46.1943 169.128Z" fill="white"/>
<path d="M24.5919 168L28.9914 172.627L41.0053 161.284L42.3026 162.639L30.2887 173.982L34.6881 178.609L33.5037 179.738L23.4639 169.072L24.5919 168Z" fill="white"/>
<path d="M19.7411 149.489C19.9667 148.022 20.8127 146.781 22.392 145.765C24.0277 144.693 25.607 144.411 27.1299 144.862C28.6528 145.313 30.0065 146.499 31.191 148.417L35.0828 154.512L19.7975 164.331L18.7822 162.751L24.2533 159.252L21.1512 154.456C20.0231 152.65 19.5155 151.013 19.7411 149.489ZM26.9607 146.724C25.889 146.386 24.7046 146.611 23.4637 147.401C21.0948 148.925 20.8691 151.07 22.7305 154.004L25.5506 158.462L32.7702 153.835L29.9501 149.377C29.0476 147.909 28.0324 147.063 26.9607 146.724Z" fill="white"/>
<path d="M10.4357 108.576C11.1125 107.842 12.015 107.391 13.2558 107.222C14.8351 106.996 16.076 107.391 17.0913 108.407C18.0501 109.423 18.7269 111.003 19.009 113.147L20.0242 121.104L2.03158 123.418L1.07272 115.912C0.847112 113.994 1.01632 112.414 1.69316 111.228C2.37 110.043 3.44166 109.366 4.90815 109.14C5.9234 109.028 6.82586 109.14 7.5591 109.592C8.29234 110.043 8.91278 110.664 9.42041 111.567C9.364 110.326 9.75883 109.31 10.4357 108.576ZM9.87163 120.54L9.13839 115.009C8.96918 113.599 8.51796 112.583 7.89752 111.906C7.22068 111.228 6.37463 110.946 5.30297 111.116C4.23131 111.285 3.44166 111.736 2.99044 112.526C2.53921 113.373 2.37 114.445 2.53921 115.856L3.27245 121.386L9.87163 120.54ZM13.3122 109.14C11.0561 109.423 10.0972 111.116 10.4921 114.219L11.2817 120.314L18.1629 119.411L17.3733 113.316C16.9784 110.213 15.6248 108.802 13.3122 109.14Z" fill="white"/>
<path d="M0 100.958L0.16921 99.0959L15.1725 100.563L1.29728 87.5272L1.46649 85.7778L19.5155 87.5272L19.3463 89.3895L4.39946 87.9223L18.2183 100.958L18.049 102.708L0 100.958Z" fill="white"/>
<path d="M24.4229 66.4209L29.8376 68.2832L29.2736 69.9761L25.4381 68.6782L20.3054 83.6892L24.1409 85.0436L23.5768 86.7366L18.1621 84.8743L18.4441 84.0278C18.7825 82.8992 18.1621 81.7705 16.5828 80.7547C15.0035 79.739 12.6346 78.6103 9.5324 77.4252L4.00488 75.3372L7.95311 63.7686L23.5768 69.1296L24.4229 66.4209ZM16.47 78.6103C18.0493 79.5132 19.0082 80.4161 19.3466 81.3755L22.9564 70.7662L8.91197 65.9694L6.0918 74.2086L10.2092 75.7887C12.8038 76.8045 14.8907 77.7074 16.47 78.6103Z" fill="white"/>
<path d="M32.8267 52.5387L34.2368 53.3852L27.6376 64.3895L12.0703 55.0217L18.5003 44.356L19.9104 45.2024L14.4957 54.2316L20.0232 57.5612L24.8739 49.4913L26.2839 50.3378L21.4333 58.4076L27.2428 61.9065L32.8267 52.5387Z" fill="white"/>
<path d="M37.5079 47.7986C35.9286 48.3065 34.3493 48.3629 32.77 48.0243C31.1907 47.6857 29.7806 46.8957 28.4833 45.6542C27.1861 44.4691 26.34 43.0583 25.8888 41.5346C25.4376 39.9545 25.4376 38.3744 25.8324 36.7943C26.2272 35.1577 27.0733 33.6905 28.3141 32.3925C29.555 31.0946 30.9651 30.1917 32.5444 29.6838C34.1237 29.1759 35.703 29.1195 37.2822 29.458C38.8615 29.7966 40.328 30.5867 41.5689 31.8282C42.8662 33.0133 43.7122 34.4241 44.1634 36.0042C44.6147 37.5843 44.6147 39.1644 44.2198 40.7445C43.825 42.3247 42.979 43.7919 41.7381 45.0898C40.4972 46.3878 39.1436 47.2907 37.5079 47.7986ZM42.4713 40.4059C42.8098 39.108 42.7534 37.8665 42.3585 36.5685C41.9637 35.2706 41.2869 34.1984 40.2152 33.1826C39.2 32.2232 38.0155 31.546 36.7182 31.2639C35.4209 30.9817 34.1801 30.9817 32.8828 31.3767C31.6419 31.7718 30.5139 32.5054 29.4986 33.5212C28.5397 34.537 27.8629 35.722 27.5245 37.02C27.1861 38.3179 27.2425 39.6159 27.5809 40.8574C27.9757 42.1554 28.6526 43.284 29.6678 44.2434C30.6831 45.2027 31.8675 45.8799 33.1648 46.1621C34.4621 46.4442 35.7594 46.4442 37.0002 45.9928C38.2411 45.5413 39.4256 44.8641 40.3844 43.8483C41.5125 42.8325 42.1893 41.7039 42.4713 40.4059Z" fill="white"/>
</svg>
