<svg width="47" height="101" viewBox="0 0 47 101" fill="none" xmlns="http://www.w3.org/2000/svg">
<mask id="path-1-inside-1" fill="white">
<path d="M47.5 0C41.2622 -7.75169e-08 35.0855 1.28036 29.3225 3.76796C23.5596 6.25557 18.3232 9.90171 13.9124 14.4982C9.50165 19.0947 6.00282 24.5516 3.61572 30.5572C1.22862 36.5628 -1.98278e-07 42.9996 0 49.5C1.98278e-07 56.0004 1.22862 62.4372 3.61572 68.4428C6.00282 74.4484 9.50165 79.9053 13.9124 84.5018C18.3232 89.0983 23.5596 92.7444 29.3225 95.232C35.0855 97.7196 41.2622 99 47.5 99L47.5 49.5V0Z"/>
</mask>
<path d="M47.5 0C41.2622 -7.75169e-08 35.0855 1.28036 29.3225 3.76796C23.5596 6.25557 18.3232 9.90171 13.9124 14.4982C9.50165 19.0947 6.00282 24.5516 3.61572 30.5572C1.22862 36.5628 -1.98278e-07 42.9996 0 49.5C1.98278e-07 56.0004 1.22862 62.4372 3.61572 68.4428C6.00282 74.4484 9.50165 79.9053 13.9124 84.5018C18.3232 89.0983 23.5596 92.7444 29.3225 95.232C35.0855 97.7196 41.2622 99 47.5 99L47.5 49.5V0Z" fill="#38B645" fill-opacity="0.3" stroke="#40E751" stroke-opacity="0.5" stroke-width="2" mask="url(#path-1-inside-1)"/>
<path d="M37.1 19.6886H28V18.3886H32.056V13.1626H28V11.8626L37.1 11.8626V13.1626L33.187 13.1626V18.3886H37.1V19.6886ZM30.275 29.7417V24.9057L28 23.9047V22.5657L37.1 26.6867V27.9737L28 32.1077L28 30.7427L30.275 29.7417ZM31.315 29.2867L35.774 27.3237L31.315 25.3607V29.2867ZM32.004 42.9414V41.0434H28V39.7694H37.1V41.0434H33.148V42.9674L37.1 45.8274V47.2184L32.693 43.9684L28 47.3744V45.8924L32.004 42.9414ZM30.275 55.795V50.959L28 49.958V48.619L37.1 52.74V54.027L28 58.161V56.796L30.275 55.795ZM31.315 55.34L35.774 53.377L31.315 51.414V55.34ZM37.1 64.5806C37.1 65.7592 36.8183 66.6866 36.255 67.3626C35.6917 68.0386 34.916 68.3766 33.928 68.3766C32.94 68.3766 32.1643 68.0386 31.601 67.3626C31.0377 66.6866 30.756 65.7592 30.756 64.5806V62.3316H28V61.0316H37.1V64.5806ZM31.887 64.5416C31.887 65.3649 32.0603 65.9932 32.407 66.4266C32.7623 66.8599 33.2693 67.0766 33.928 67.0766C34.5867 67.0766 35.0893 66.8599 35.436 66.4266C35.7913 65.9932 35.969 65.3649 35.969 64.5416V62.3316H31.887V64.5416ZM35.969 77.4459V74.3259H28V73.0519H35.969V69.9449H37.1V77.4459H35.969ZM29.131 86.9299H28L28 80.3259H37.1V86.7479H35.969V81.6259H33.174L33.174 86.1889H32.069L32.069 81.6259H29.131L29.131 86.9299Z" fill="white"/>
</svg>
