<svg width="214" height="214" viewBox="0 0 214 214" fill="none" xmlns="http://www.w3.org/2000/svg">
<path d="M72.8878 38.0861L77.2905 46.0811L76.4639 46.5501L74.4274 42.8646L69.467 45.56L71.5035 49.2455L70.6769 49.7145L66.2444 41.6897L67.071 41.2207L69.0476 44.7873L74.008 42.0919L72.0314 38.5253L72.8878 38.0861Z" fill="#FFB891"/>
<path d="M85.5598 41.9841L85.8607 42.7561L79.8608 45.0009L76.5806 36.4795L82.4031 34.2928L82.704 35.0648L77.768 36.9013L78.912 39.9297L83.2863 38.2972L83.5872 39.0692L79.2128 40.7017L80.4167 43.849L85.5598 41.9841Z" fill="#FFB891"/>
<path d="M95.5288 39.6447L96.1678 42.4627L95.31 42.6649L94.8537 40.6774L87.1324 42.3786L87.5887 44.3661L86.7309 44.5683L86.0918 41.7503L86.5356 41.6641C87.0976 41.5194 87.4201 40.9585 87.4144 40.0105C87.4087 39.0625 87.2823 37.7584 86.9466 36.1271L86.3959 33.2208L92.3717 31.8941L94.2271 39.9331L95.5288 39.6447ZM88.2697 39.3936C88.3049 40.3121 88.1605 40.9333 87.837 41.3164L93.2802 40.1051L91.6072 32.8374L87.3769 33.7895L87.8048 35.9842C88.0798 37.3781 88.2346 38.4751 88.2697 39.3936Z" fill="#FFB891"/>
<path d="M103.89 35.933C104.247 36.2906 104.428 36.7656 104.491 37.3585C104.555 38.1291 104.322 38.7794 103.821 39.2207C103.32 39.662 102.492 39.9532 101.426 40.0061L97.3993 40.3373L96.6337 31.2681L100.394 31.0242C101.371 30.9412 102.113 31.0938 102.707 31.4528C103.302 31.8119 103.602 32.3469 103.665 33.1175C103.698 33.6212 103.612 34.0651 103.377 34.4191C103.142 34.7732 102.789 35.0673 102.345 35.272C103.027 35.3649 103.532 35.5753 103.89 35.933ZM103.543 37.3528C103.447 36.1969 102.615 35.7179 101.045 35.7973L97.9657 36.0158L98.2532 39.4834L101.333 39.2649C102.902 39.1855 103.639 38.5086 103.543 37.3528ZM97.9316 35.275L100.685 35.0842C101.396 35.0293 101.928 34.8547 102.252 34.5308C102.606 34.2367 102.751 33.7933 102.718 33.2302C102.685 32.6672 102.476 32.2809 102.059 32.0414C101.673 31.7724 101.109 31.6802 100.399 31.7351L97.6449 31.9259L97.9316 35.275Z" fill="#FFB891"/>
<path d="M107.384 30.7701L108.332 30.835L107.844 38.3563L114.141 31.2847L115.03 31.3493L114.433 40.4103L113.484 40.3453L114.002 32.8539L107.705 39.9254L106.816 39.8608L107.384 30.7701Z" fill="#FFB891"/>
<path d="M125.263 38.5798L123.424 38.0947L122.441 42.1175L121.551 41.8751L122.533 37.8524L120.694 37.3673L117.011 40.6925L115.913 40.4193L120.038 36.6524L118.29 31.6653L119.298 31.9083L120.867 36.5389L122.706 37.024L123.66 33.0899L124.55 33.3322L123.596 37.2663L125.436 37.7514L128.971 34.4549L129.979 34.698L126.12 38.2591L128.019 43.573L126.921 43.2998L125.263 38.5798Z" fill="#FFB891"/>
<path d="M132.742 35.8693L133.603 36.2596L130.594 43.1435L138.92 38.6318L139.722 38.9625L136.099 47.235L135.237 46.8447L138.217 39.9902L129.861 44.4721L129.059 44.1414L132.742 35.8693Z" fill="#FFB891"/>
<path d="M151.407 46.2312L146.417 53.7846L145.643 53.2467L149.636 47.2277L143.285 50.2999L142.899 50.031L143.242 43.0124L139.279 49.002L138.505 48.4641L143.496 40.9107L144.18 41.3592L143.782 49.1476L150.753 45.7533L151.407 46.2312Z" fill="#FFB891"/>
<path d="M150.016 56.2056C149.744 55.4042 149.71 54.6042 149.883 53.835C150.056 53.0659 150.437 52.3276 151.055 51.7093C151.644 51.0611 152.352 50.6506 153.121 50.4183C153.89 50.1859 154.719 50.1909 155.52 50.4031C156.321 50.6153 157.065 51.0641 157.72 51.6605C158.375 52.2569 158.824 53.0002 159.095 53.8017C159.367 54.6031 159.372 55.3733 159.228 56.1723C159.026 56.9709 158.674 57.6797 158.056 58.298C157.468 58.9462 156.759 59.3567 155.99 59.589C155.222 59.8214 154.392 59.8164 153.591 59.6042C152.79 59.392 152.076 58.973 151.391 58.3468C150.736 57.7504 150.287 57.0071 150.016 56.2056ZM153.734 58.746C154.387 58.9276 155.009 58.9018 155.659 58.728C156.28 58.5243 156.841 58.2019 157.312 57.6715C157.812 57.1709 158.105 56.5802 158.279 55.9296C158.453 55.2789 158.419 54.6566 158.208 54.0333C157.997 53.4099 157.638 52.8153 157.102 52.3381C156.566 51.8609 155.971 51.5019 155.348 51.35C154.695 51.1683 154.074 51.1942 153.423 51.368C152.772 51.5419 152.241 51.8941 151.741 52.3947C151.24 52.8953 150.947 53.486 150.773 54.1366C150.6 54.7873 150.663 55.4394 150.874 56.0627C151.085 56.6861 151.444 57.2807 151.98 57.7579C152.516 58.2351 153.081 58.5643 153.734 58.746Z" fill="#FFB891"/>
<path d="M157.558 64.0418C157.405 63.241 157.489 62.4417 157.781 61.6733C158.072 60.9049 158.572 60.2858 159.25 59.7271C159.928 59.1683 160.696 58.8767 161.466 58.7628C162.295 58.6494 163.066 58.7725 163.808 59.1028C164.551 59.4331 165.235 59.9408 165.802 60.6848C166.22 61.2205 166.52 61.7556 166.701 62.3491C166.882 62.9427 166.915 63.5057 166.83 64.1272L165.971 64.0332C166.083 63.0267 165.811 62.1068 165.124 61.2436C164.677 60.678 164.141 60.2601 163.517 59.9897C162.894 59.7194 162.271 59.6268 161.59 59.7115C160.909 59.7963 160.348 60.0595 159.788 60.5005C159.228 60.9414 158.846 61.4427 158.583 62.0632C158.349 62.6543 158.294 63.3056 158.387 63.9875C158.509 64.64 158.78 65.2637 159.228 65.8292C159.914 66.6924 160.746 67.1714 161.754 67.2959L161.671 68.1545C161.078 68.0917 160.514 67.9402 160.008 67.6113C159.473 67.3118 158.997 66.8942 158.579 66.3585C158.042 65.6443 157.681 64.872 157.558 64.0418Z" fill="#FFB891"/>
<path d="M171.73 71.2072L170.055 68.4718L163.03 72.6952L162.522 71.8923L169.546 67.6689L167.871 64.9336L168.58 64.5231L172.409 70.8262L171.73 71.2072Z" fill="#FFB891"/>
<path d="M172.556 80.396C172.353 81.1354 171.823 81.6654 170.966 82.0453C170.08 82.4547 169.28 82.4795 168.567 82.1198C167.854 81.76 167.287 81.0752 166.777 80.0354L165.306 76.7384L173.608 73.0856L173.998 73.947L171.044 75.2326L172.244 77.8466C172.635 78.8265 172.789 79.6865 172.556 80.396ZM168.799 81.2325C169.334 81.4727 169.896 81.4464 170.576 81.1839C171.846 80.6288 172.136 79.5641 171.445 77.9899L170.335 75.5838L166.406 77.3078L167.516 79.714C167.846 80.4565 168.294 80.9628 168.799 81.2325Z" fill="#FFB891"/>
<path d="M181.671 108.473L172.608 108.656L172.602 107.708L176.808 107.614L176.596 101.926L172.39 102.019L172.355 101.041L181.418 100.859L181.453 101.836L177.396 101.901L177.608 107.59L181.665 107.525L181.671 108.473Z" fill="#FFB891"/>
<path d="M172.545 117.898L171.715 117.775L172.387 111.38L181.429 112.471L180.785 118.659L179.955 118.535L180.516 113.325L177.314 112.95L176.809 117.628L176.009 117.534L176.514 112.857L173.164 112.451L172.545 117.898Z" fill="#FFB891"/>
<path d="M170.176 127.896L167.387 127.169L167.589 126.311L169.577 126.826L171.486 119.136L169.498 118.62L169.7 117.762L172.489 118.49L172.403 118.934C172.288 119.526 172.647 120.061 173.479 120.481C174.311 120.96 175.528 121.412 177.16 121.866L180.009 122.712L178.534 128.658L170.523 126.536L170.176 127.896ZM173.633 121.519C172.831 121.129 172.295 120.711 172.115 120.236L170.755 125.648L177.965 127.558L179.006 123.358L176.899 122.723C175.564 122.33 174.495 121.909 173.633 121.519Z" fill="#FFB891"/>
<path d="M169.787 137.048C169.314 137.223 168.78 137.16 168.245 136.92C167.533 136.619 167.085 136.113 166.874 135.43C166.722 134.748 166.805 133.89 167.244 132.915L168.791 129.221L177.196 132.797L175.736 136.284C175.386 137.17 174.886 137.789 174.296 138.141C173.705 138.493 173.083 138.519 172.371 138.218C171.896 138.038 171.538 137.74 171.329 137.353C171.119 136.967 170.998 136.551 171.025 136.048C170.702 136.55 170.259 136.873 169.787 137.048ZM168.685 136.063C169.724 136.514 170.58 136.016 171.164 134.597L172.332 131.761L169.124 130.379L167.956 133.215C167.343 134.663 167.586 135.613 168.685 136.063ZM173.015 132.031L171.964 134.572C171.701 135.193 171.615 135.755 171.737 136.23C171.858 136.705 172.186 137.032 172.691 137.243C173.196 137.453 173.67 137.456 174.053 137.192C174.466 136.957 174.79 136.515 175.082 135.865L176.133 133.324L173.015 132.031Z" fill="#FFB891"/>
<path d="M172.813 142.605L172.314 143.401L165.862 139.423L169.293 148.33L168.853 149.068L161.063 144.281L161.562 143.485L167.984 147.434L164.553 138.526L164.993 137.788L172.813 142.605Z" fill="#FFB891"/>
<path d="M157.867 154.808L159.103 153.394L155.976 150.62L156.594 149.942L159.721 152.716L160.956 151.302L159.624 146.436L160.359 145.581L161.843 151.011L167.091 151.842L166.415 152.638L161.641 151.869L160.405 153.283L163.473 155.997L162.855 156.675L159.787 153.961L158.552 155.375L159.913 160.034L159.236 160.83L157.814 155.756L152.24 154.952L152.975 154.097L157.867 154.808Z" fill="#FFB891"/>
<path d="M156.937 162.711L156.2 163.329L151.425 157.435L151.689 166.945L151.011 167.504L145.222 160.419L145.959 159.801L150.734 165.696L150.469 156.185L151.147 155.626L156.937 162.711Z" fill="#FFB891"/>
<path d="M139.382 174.485L134.891 166.52L135.688 166.08L139.281 172.441L139.386 165.362L139.77 165.157L145.894 168.748L142.331 162.417L143.128 161.978L147.619 169.944L146.94 170.325L140.192 166.344L140.15 174.135L139.382 174.485Z" fill="#FFB891"/>
<path d="M131.111 168.57C131.941 168.693 132.654 169.053 133.28 169.561C133.905 170.068 134.353 170.752 134.654 171.583C134.956 172.414 135.02 173.244 134.877 174.043C134.733 174.842 134.382 175.551 133.823 176.17C133.264 176.788 132.556 177.258 131.728 177.549C130.9 177.841 130.042 177.924 129.241 177.771C128.44 177.618 127.698 177.288 127.073 176.781C126.448 176.273 125.969 175.56 125.698 174.758C125.397 173.927 125.332 173.097 125.476 172.298C125.619 171.499 125.97 170.79 126.529 170.172C127.088 169.553 127.767 169.113 128.624 168.792C129.482 168.53 130.281 168.446 131.111 168.57ZM127.243 170.709C126.802 171.21 126.539 171.771 126.424 172.422C126.31 173.073 126.373 173.725 126.584 174.408C126.825 175.061 127.214 175.626 127.72 176.074C128.226 176.521 128.791 176.791 129.443 176.913C130.096 177.036 130.747 176.981 131.457 176.748C132.107 176.515 132.697 176.163 133.139 175.662C133.58 175.161 133.843 174.6 133.987 173.919C134.131 173.239 134.039 172.616 133.827 171.934C133.586 171.28 133.198 170.715 132.691 170.268C132.185 169.821 131.621 169.551 130.939 169.458C130.257 169.365 129.605 169.42 128.925 169.623C128.216 169.856 127.685 170.208 127.243 170.709Z" fill="#FFB891"/>
<path d="M120.792 171.618C121.593 171.889 122.247 172.308 122.755 172.933C123.291 173.529 123.652 174.301 123.805 175.161C123.958 176.021 123.933 176.821 123.672 177.619C123.38 178.388 122.969 179.037 122.321 179.566C121.672 180.095 120.933 180.417 120.046 180.589C119.395 180.704 118.743 180.7 118.15 180.578C117.557 180.456 117.022 180.216 116.517 179.887L116.986 179.179C117.819 179.776 118.768 179.959 119.833 179.729C120.544 179.615 121.134 179.322 121.665 178.91C122.166 178.469 122.548 177.968 122.752 177.347C122.955 176.726 123.011 176.075 122.888 175.363C122.765 174.651 122.465 174.057 122.018 173.551C121.57 173.045 121.035 172.686 120.412 172.475C119.788 172.264 119.107 172.23 118.397 172.344C117.302 172.545 116.535 173.074 115.977 173.929L115.263 173.451C115.586 172.949 115.998 172.537 116.5 172.214C117.002 171.891 117.593 171.658 118.273 171.514C119.19 171.312 120.02 171.376 120.792 171.618Z" fill="#FFB891"/>
<path d="M108.109 180.843L111.278 180.655L110.665 172.387L111.613 172.333L112.225 180.602L115.394 180.413L115.458 181.243L108.144 181.703L108.109 180.843Z" fill="#FFB891"/>
<path d="M99.5566 177.296C99.0201 176.759 98.7789 176.047 98.803 175.129C98.8267 174.151 99.1779 173.443 99.8268 172.973C100.476 172.502 101.333 172.3 102.46 172.366L106.075 172.566L105.626 181.657L104.678 181.592L104.836 178.335L101.961 178.169C100.894 178.104 100.093 177.832 99.5566 177.296ZM100.482 173.569C100.01 173.922 99.7764 174.453 99.7513 175.194C99.6708 176.586 100.505 177.361 102.223 177.43L104.861 177.594L105.042 173.3L102.405 173.136C101.575 173.072 100.954 173.216 100.482 173.569Z" fill="#FFB891"/>
<path d="M70.4968 172.323L74.3874 164.14L75.2193 164.56L73.4349 168.312L78.5747 170.801L80.3591 167.05L81.2503 167.47L77.3597 175.652L76.4685 175.232L78.1944 171.599L73.0547 169.109L71.3582 172.713L70.4968 172.323Z" fill="#FFB891"/>
<path d="M66.1853 159.766L66.6256 159.087L72.0091 162.704L66.9889 170.228L61.8133 166.701L62.2536 166.022L66.6259 168.981L68.4167 166.296L64.4907 163.666L64.9309 162.987L68.857 165.618L70.7063 162.815L66.1853 159.766Z" fill="#FFB891"/>
<path d="M58.383 152.965L60.2661 150.844L60.9214 151.44L59.568 152.972L65.5245 158.281L66.8779 156.749L67.5332 157.345L65.6501 159.467L65.2929 159.168C64.8167 158.81 64.1952 158.895 63.3984 159.394C62.6314 159.923 61.659 160.776 60.5109 161.983L58.5094 164.104L53.9525 160.018L59.4254 153.89L58.383 152.965ZM62.5075 159.033C63.2447 158.475 63.8358 158.241 64.3396 158.274L60.1105 154.516L55.1967 160.026L58.4728 162.949L60.0036 161.358C60.9455 160.357 61.7703 159.592 62.5075 159.033Z" fill="#FFB891"/>
<path d="M50.4161 148.355C50.5019 147.852 50.7658 147.409 51.2079 147.027C51.827 146.527 52.4776 146.353 53.1598 146.505C53.8421 146.658 54.5265 147.165 55.2424 147.999L57.8679 151.096L50.9414 156.89L48.4948 153.972C47.8682 153.228 47.5085 152.514 47.4747 151.833C47.441 151.151 47.7042 150.59 48.2641 150.09C48.6472 149.766 49.0609 149.591 49.505 149.564C49.9492 149.537 50.3647 149.658 50.8106 149.928C50.4814 149.363 50.3597 148.829 50.4161 148.355ZM53.4393 153.557L51.649 151.414C51.1718 150.878 50.7255 150.549 50.2806 150.458C49.8059 150.336 49.3625 150.482 48.9793 150.805C48.5667 151.158 48.3617 151.542 48.3943 152.046C48.427 152.55 48.6668 153.025 49.1146 153.591L50.9049 155.734L53.4393 153.557ZM51.7752 147.771C50.9206 148.506 50.9855 149.455 51.9704 150.675L53.9693 153.027L56.5924 150.821L54.5936 148.469C53.6385 147.279 52.6891 147.036 51.7752 147.771Z" fill="#FFB891"/>
<path d="M44.1368 148.436L43.6284 147.633L50.033 143.732L40.5768 142.638L40.128 141.894L47.8609 137.201L48.3693 138.004L41.9646 141.906L51.4209 142.999L51.8697 143.743L44.1368 148.436Z" fill="#FFB891"/>
<path d="M39.9046 129.422L40.5965 131.174L44.4681 129.686L44.7991 130.548L40.9275 132.035L41.6194 133.787L46.5434 134.883L46.9347 135.922L41.4176 134.704L38.3922 138.981L38.0012 138.001L40.8215 134.108L40.0998 132.326L36.3169 133.785L35.9859 132.924L39.7688 131.465L39.0769 129.713L34.3314 128.737L33.9404 127.757L39.1014 128.854L42.2729 124.252L42.6643 125.291L39.9046 129.422Z" fill="#FFB891"/>
<path d="M33.3019 124.88L33.089 123.96L40.4562 122.494L31.8698 118.265L31.6871 117.435L40.5926 115.622L40.8055 116.542L33.4681 118.038L42.0545 122.266L42.2372 123.097L33.3019 124.88Z" fill="#FFB891"/>
<path d="M30.6858 103.773L39.7783 103.502L39.8135 104.42L32.5573 104.643L38.8281 108.028L38.8306 108.443L32.9286 112.199L40.1554 112.006L40.1906 112.924L31.098 113.195L31.0636 112.395L37.6445 108.258L30.7497 104.543L30.6858 103.773Z" fill="#FFB891"/>
<path d="M39.6332 99.175C39.1337 99.8533 38.5147 100.353 37.7462 100.645C36.9778 100.936 36.2083 101.05 35.3189 100.926C34.4294 100.803 33.6869 100.472 33.0617 99.9649C32.4366 99.4575 31.9587 98.8029 31.6578 98.0309C31.3569 97.2589 31.2629 96.3993 31.376 95.5113C31.4892 94.6233 31.7808 93.8549 32.2803 93.1766C32.7503 92.5277 33.3694 92.0278 34.1378 91.7362C34.9063 91.4446 35.6758 91.3308 36.5652 91.4546C37.4546 91.5785 38.1972 91.9088 38.8223 92.4162C39.4475 92.9235 39.9254 93.5781 40.2262 94.3501C40.5271 95.1221 40.6212 95.9817 40.508 96.8697C40.4243 97.7283 40.1327 98.4967 39.6332 99.175ZM39.488 94.7307C39.2176 94.107 38.8295 93.6011 38.3235 93.213C37.7878 92.795 37.1939 92.5545 36.4822 92.4317C35.8003 92.3387 35.1195 92.4235 34.4987 92.6271C33.8778 92.8307 33.3769 93.272 32.9948 93.7733C32.5833 94.3041 32.3797 94.9249 32.2655 95.6352C32.1513 96.3454 32.2442 97.0273 32.5146 97.651C32.785 98.2747 33.1437 98.8101 33.6794 99.228C34.2151 99.646 34.809 99.8865 35.5207 100.009C36.2026 100.102 36.8834 100.018 37.4744 99.7841C38.0949 99.5212 38.5962 99.1392 39.0077 98.6084C39.4193 98.0777 39.6523 97.4274 39.7371 96.7466C39.7921 96.036 39.6991 95.3541 39.488 94.7307Z" fill="#FFB891"/>
<path d="M41.5251 88.5821C40.9362 89.171 40.2572 89.552 39.4586 89.7545C38.66 89.9571 37.86 89.9226 36.9993 89.6508C36.1386 89.379 35.4549 88.9898 34.8883 88.3643C34.3221 87.7981 33.9325 87.0552 33.7796 86.2545C33.5969 85.4239 33.6217 84.6243 33.8533 83.737C34.0271 83.0863 34.2903 82.5251 34.7022 82.0536C35.0843 81.5523 35.4969 81.1993 36.0581 80.9361L36.4775 81.7088C35.5916 82.1774 35.0038 82.9441 34.6842 83.979C34.4809 84.6591 34.4554 85.3402 34.6371 85.993C34.7893 86.6753 35.0887 87.2103 35.5656 87.6871C36.0424 88.1639 36.5778 88.5226 37.2898 88.7047C37.9724 88.9161 38.6241 88.9201 39.2748 88.7462C39.9255 88.5724 40.4569 88.2794 40.928 87.8083C41.3992 87.3371 41.7511 86.7468 41.9543 86.0667C42.2441 85.002 42.1497 84.0832 41.6406 83.1618L42.4083 82.7517C42.7372 83.2573 42.8887 83.821 42.9813 84.4436C43.0442 85.0365 42.9888 85.6878 42.815 86.3385C42.5245 87.2847 42.114 87.9931 41.5251 88.5821Z" fill="#FFB891"/>
<path d="M38.9714 72.9555L37.7152 75.8806L45.3185 79.1849L44.9386 80.0417L37.3353 76.7374L36.0791 79.6625L35.3366 79.3322L38.199 72.5954L38.9714 72.9555Z" fill="#FFB891"/>
<path d="M45.9275 67.0135C46.637 66.7808 47.3782 66.8742 48.181 67.3826C49.0432 67.8914 49.5211 68.5459 49.6736 69.2874C49.7968 70.0583 49.5946 70.9162 49.0082 71.9198L47.2199 75.0194L39.3419 70.3805L39.8109 69.5539L42.635 71.2001L44.0717 68.7501C44.629 67.8351 45.2477 67.276 45.9275 67.0135ZM48.8463 69.6379C48.7541 69.0745 48.3957 68.5984 47.7419 68.239C46.5526 67.5209 45.5181 67.8997 44.6383 69.3756L43.319 71.6486L47.035 73.8334L48.3543 71.5604C48.7942 70.8225 48.968 70.1718 48.8463 69.6379Z" fill="#FFB891"/>
</svg>
