<svg width="150" height="150" viewBox="0 0 150 150" fill="none" xmlns="http://www.w3.org/2000/svg">
<path d="M80.5691 0.210674L80.3574 8.46909L79.5106 8.42696L79.7223 0.926965L74.4725 0.800561L74.2608 8.30055L73.4141 8.25842L73.5834 0L80.5691 0.210674Z" fill="white"/>
<path d="M89.5851 2.19111C90.0932 2.781 90.3049 3.49729 90.1355 4.38212C89.9662 5.26695 89.5851 5.89897 88.9077 6.27818C88.2303 6.6574 87.3836 6.7838 86.3252 6.61526L84.1236 6.27818L83.7003 8.8484L82.8535 8.722L84.166 0.547852L87.2143 1.05347C88.2727 1.22201 89.0348 1.60122 89.5851 2.19111ZM88.3574 5.64616C88.8231 5.35122 89.1194 4.88773 89.2464 4.25571C89.3735 3.58156 89.2041 3.0338 88.8654 2.61246C88.4844 2.19111 87.8916 1.89616 87.0872 1.76976L84.928 1.43268L84.2506 5.51976L86.4098 5.85683C87.2566 6.02537 87.8916 5.9411 88.3574 5.64616Z" fill="white"/>
<path d="M93.1404 2.19092L93.9872 2.44373L92.0396 9.01675L99.11 3.96058L99.872 4.17125L97.5012 12.0926L96.6544 11.8398L98.6019 5.30889L91.5316 10.3229L90.7695 10.1123L93.1404 2.19092Z" fill="white"/>
<path d="M103.26 5.51964L104.065 9.43817L107.536 7.4157L108.468 7.83705L104.276 10.323L105.335 15.4634L104.403 15.0421L103.514 10.7443L99.7039 12.9354L98.7725 12.514L103.303 9.85952L102.329 5.05615L103.26 5.51964Z" fill="white"/>
<path d="M107.79 16.3061C107.409 15.6319 107.239 14.9577 107.239 14.1993C107.239 13.4409 107.451 12.7667 107.874 12.0504C108.298 11.3763 108.806 10.8707 109.483 10.4915C110.118 10.1544 110.838 9.98584 111.6 9.98584C112.362 10.028 113.082 10.2386 113.802 10.66C114.521 11.0813 115.029 11.6291 115.41 12.2611C115.791 12.8931 115.961 13.6094 115.961 14.3679C115.961 15.1263 115.749 15.8426 115.326 16.5167C114.902 17.1909 114.394 17.6965 113.717 18.0757C113.039 18.4549 112.362 18.5813 111.6 18.5813C110.838 18.5392 110.118 18.3285 109.398 17.9072C108.721 17.4858 108.171 16.9381 107.79 16.3061ZM111.558 17.7808C112.15 17.7808 112.743 17.6544 113.251 17.3594C113.759 17.0645 114.225 16.6431 114.564 16.0954C114.902 15.5476 115.072 14.9577 115.072 14.3679C115.072 13.778 114.945 13.1881 114.648 12.6825C114.352 12.1768 113.929 11.7134 113.336 11.3763C112.785 11.0392 112.193 10.8707 111.558 10.8285C110.965 10.7864 110.372 10.9549 109.864 11.2499C109.314 11.5448 108.89 11.9662 108.552 12.5139C108.213 13.0617 108.044 13.6516 108.044 14.2415C108.044 14.8313 108.171 15.4212 108.467 15.9268C108.763 16.4325 109.187 16.8959 109.779 17.233C110.372 17.5701 110.965 17.7386 111.558 17.7808Z" fill="white"/>
<path d="M120.831 25.2388L119.18 27.2613L118.545 26.7557L119.731 25.3231L114.1 20.7725L112.914 22.2051L112.279 21.6995L113.93 19.677L114.269 19.9298C114.693 20.2669 115.285 20.1405 115.963 19.6349C116.64 19.1293 117.487 18.2866 118.503 17.1489L120.281 15.1265L124.642 18.6237L119.858 24.4383L120.831 25.2388ZM116.852 19.9298C116.217 20.4776 115.666 20.7304 115.201 20.7304L119.18 23.9326L123.456 18.6658L120.366 16.1798L119.053 17.6967C118.207 18.6237 117.487 19.3821 116.852 19.9298Z" fill="white"/>
<path d="M127.478 21.2363L128.071 21.8683L123.075 26.5453L131.712 25.7447L132.262 26.3346L126.208 31.9807L125.615 31.3487L130.611 26.6717L121.974 27.4723L121.424 26.8824L127.478 21.2363Z" fill="white"/>
<path d="M137.046 33.8763L135.31 31.5167L129.213 35.9409L128.705 35.2667L134.802 30.8426L133.066 28.483L133.659 28.0195L137.596 33.4128L137.046 33.8763Z" fill="white"/>
<path d="M135.267 44.1153L134.59 44.4945L131.626 39.4383L138.823 35.3091L141.66 40.1967L141.025 40.5759L138.612 36.4467L136.071 37.9214L138.231 41.6293L137.596 42.0085L135.436 38.3007L132.769 39.8596L135.267 44.1153Z" fill="white"/>
<path d="M149.198 62.1908L141.111 63.9604L140.942 63.1177L144.668 62.3172L143.567 57.261L139.841 58.0616L139.672 57.2189L147.758 55.4492L147.928 56.2919L144.329 57.0925L145.43 62.1486L149.028 61.3481L149.198 62.1908Z" fill="white"/>
<path d="M144.072 71.5872L143.691 66.9945L141.405 66.1939L141.32 65.3091L149.915 68.3849L149.999 69.2276L142.04 73.6518L141.955 72.7248L144.072 71.5872ZM144.792 71.208L149.068 68.8905L144.453 67.2894L144.792 71.208Z" fill="white"/>
<path d="M147.629 92.7809C147.121 93.3286 146.529 93.6657 145.851 93.8764C145.131 94.0871 144.412 94.0871 143.607 93.9185C142.845 93.75 142.168 93.4129 141.617 92.9073C141.067 92.4017 140.686 91.8118 140.474 91.1376C140.263 90.4635 140.22 89.7472 140.39 88.9888C140.517 88.3567 140.771 87.809 141.067 87.3455C141.406 86.882 141.787 86.5028 142.252 86.25L142.676 86.882C141.871 87.3876 141.363 88.1461 141.152 89.1573C141.025 89.7051 141.025 90.2528 141.194 90.8006C141.363 91.3483 141.617 91.7697 142.041 92.191C142.422 92.5702 142.93 92.8652 143.523 93.0337L144.454 88.8624L145.174 89.0309L144.242 93.1601C144.835 93.2444 145.343 93.1601 145.851 92.9916C146.359 92.823 146.783 92.486 147.164 92.1067C147.502 91.6854 147.756 91.2219 147.883 90.6742C148.095 89.6629 147.968 88.7781 147.46 87.9775L148.137 87.5562C148.434 87.9775 148.645 88.4831 148.73 89.073C148.815 89.6208 148.772 90.2528 148.645 90.8848C148.434 91.6011 148.095 92.2331 147.629 92.7809Z" fill="white"/>
<path d="M141.618 98.638L142.253 96.8683L138.655 95.6043L138.951 94.8037L146.783 97.5846L146.487 98.3852L142.973 97.1211L142.338 98.8908L144.92 102.767L144.582 103.652L141.83 99.4385L136.707 101.082L137.046 100.155L141.618 98.638Z" fill="white"/>
<path d="M136.029 103.525C136.664 103.104 137.342 102.851 138.062 102.809C138.824 102.767 139.543 102.893 140.263 103.272C140.983 103.652 141.533 104.115 141.957 104.747C142.38 105.379 142.592 106.053 142.634 106.812C142.676 107.57 142.507 108.287 142.126 109.045C141.872 109.593 141.491 110.056 141.11 110.435C140.686 110.815 140.221 111.067 139.713 111.236L139.459 110.478C140.348 110.183 140.983 109.593 141.448 108.708C141.745 108.118 141.872 107.528 141.83 106.896C141.787 106.264 141.618 105.716 141.279 105.211C140.94 104.705 140.475 104.326 139.924 104.031C139.332 103.736 138.739 103.61 138.146 103.652C137.553 103.694 137.003 103.905 136.495 104.242C135.987 104.579 135.606 105.042 135.31 105.632C134.886 106.517 134.802 107.402 135.098 108.244L134.336 108.497C134.124 107.992 134.082 107.486 134.124 106.896C134.166 106.348 134.336 105.758 134.59 105.211C134.929 104.537 135.437 103.947 136.029 103.525Z" fill="white"/>
<path d="M134.082 113.68L135.141 112.121L131.965 110.056L132.431 109.34L139.374 113.89L138.909 114.607L135.818 112.584L134.76 114.143L136.326 118.525L135.818 119.326L134.167 114.565L128.79 114.944L129.34 114.101L134.082 113.68Z" fill="white"/>
<path d="M130.188 126.025L127.267 118.693C127.055 118.188 126.97 117.682 127.013 117.261C127.055 116.84 127.224 116.46 127.478 116.123C127.69 115.87 127.944 115.66 128.325 115.491L128.706 116.123C128.452 116.25 128.24 116.418 128.071 116.629C127.732 117.05 127.648 117.556 127.902 118.23L128.071 118.651L135.141 120.168L134.549 120.884L128.367 119.494L130.781 125.351L130.188 126.025Z" fill="white"/>
<path d="M124.134 130.786C123.329 130.828 122.652 130.533 122.059 129.901C121.466 129.269 121.212 128.553 121.297 127.795C121.382 127.036 121.805 126.278 122.567 125.561L124.176 124.045L122.356 122.148L122.991 121.559L128.706 127.542L126.462 129.648C125.7 130.365 124.938 130.744 124.134 130.786ZM122.102 127.752C122.017 128.3 122.229 128.806 122.694 129.311C123.16 129.817 123.668 130.028 124.218 129.986C124.769 129.943 125.362 129.648 125.954 129.101L127.563 127.584L124.726 124.592L123.118 126.109C122.525 126.615 122.186 127.205 122.102 127.752Z" fill="white"/>
<path d="M116.132 128.217C116.894 128.132 117.614 128.217 118.291 128.511C118.969 128.806 119.562 129.27 120.027 129.902C120.493 130.534 120.789 131.25 120.874 131.967C120.959 132.725 120.832 133.399 120.535 134.115C120.239 134.832 119.731 135.379 119.054 135.885C118.546 136.264 118.037 136.517 117.487 136.643C116.937 136.77 116.429 136.812 115.878 136.728L116.005 135.969C116.937 136.096 117.783 135.885 118.545 135.295C119.054 134.916 119.477 134.452 119.731 133.863C119.985 133.315 120.07 132.725 120.027 132.135C119.943 131.545 119.731 130.997 119.35 130.45C118.969 129.944 118.503 129.565 117.953 129.312C117.402 129.059 116.81 128.975 116.217 129.059C115.624 129.143 115.032 129.354 114.523 129.776C113.719 130.365 113.253 131.124 113.126 132.009L112.364 131.882C112.407 131.334 112.618 130.829 112.915 130.365C113.211 129.902 113.592 129.481 114.1 129.101C114.693 128.596 115.37 128.301 116.132 128.217Z" fill="white"/>
<path d="M114.309 138.961L113.547 139.382L110.244 133.399L108.932 141.952L108.254 142.331L104.232 135.084L104.994 134.663L108.297 140.646L109.652 132.093L110.329 131.713L114.309 138.961Z" fill="white"/>
<path d="M96.2321 146.502C95.5124 146.376 94.8773 146.081 94.3269 145.575C93.7765 145.07 93.3532 144.48 93.0991 143.722C92.8451 142.963 92.7604 142.247 92.8875 141.531C93.0145 140.814 93.3108 140.182 93.7765 139.634C94.2422 139.087 94.8773 138.665 95.597 138.413C96.3168 138.16 96.9942 138.118 97.6716 138.202C98.349 138.328 98.984 138.581 99.5344 139.002C100.085 139.424 100.508 140.014 100.805 140.688L102.413 140.14L101.143 136.559L101.948 136.264L104.7 144.059L103.895 144.354L102.667 140.898L101.059 141.446C101.228 142.163 101.228 142.837 101.101 143.469C100.932 144.143 100.635 144.691 100.169 145.196C99.7038 145.702 99.1534 146.081 98.4336 146.292C97.7139 146.545 96.9518 146.629 96.2321 146.502ZM94.4539 140.098C94.0729 140.561 93.8612 141.067 93.7342 141.657C93.6495 142.247 93.6919 142.837 93.9036 143.469C94.1152 144.101 94.4539 144.606 94.8773 144.986C95.3007 145.365 95.8087 145.618 96.4014 145.744C96.9942 145.87 97.5446 145.828 98.1373 145.618C98.73 145.407 99.1957 145.112 99.5344 144.648C99.9154 144.185 100.127 143.679 100.254 143.09C100.339 142.5 100.296 141.91 100.085 141.278C99.8731 140.646 99.5344 140.14 99.111 139.761C98.6877 139.382 98.1796 139.129 97.5869 139.002C96.9942 138.876 96.4438 138.918 95.8934 139.129C95.3007 139.297 94.835 139.634 94.4539 140.098Z" fill="white"/>
<path d="M70.915 149.874L71.0421 141.615H71.8888L71.7618 149.115L77.0116 149.199L77.1386 141.699H77.9854L77.9007 150L70.915 149.874Z" fill="white"/>
<path d="M61.9373 148.104C61.4293 147.514 61.2176 146.798 61.3446 145.913C61.4716 145.028 61.8526 144.396 62.53 143.975C63.2074 143.554 64.0542 143.427 65.1126 143.554L67.3142 143.849L67.6529 141.278L68.5419 141.405L67.3988 149.579L64.3082 149.158C63.2498 149.031 62.4454 148.694 61.9373 148.104ZM63.0381 144.649C62.5724 144.944 62.276 145.408 62.1913 146.082C62.1067 146.756 62.2337 147.261 62.6147 147.683C62.9958 148.104 63.5885 148.357 64.3929 148.483L66.5944 148.778L67.1448 144.691L64.9433 144.396C64.1812 144.228 63.5461 144.354 63.0381 144.649Z" fill="white"/>
<path d="M58.382 148.188L57.5353 147.978L59.3558 141.363L52.4125 146.587L51.6504 146.377L53.8519 138.413L54.6987 138.624L52.8782 145.197L59.8215 140.014L60.5836 140.225L58.382 148.188Z" fill="white"/>
<path d="M48.1799 145.112L47.2484 141.194L43.8191 143.3L42.8877 142.921L47.0367 140.351L45.8513 135.21L46.7827 135.59L47.7988 139.845L51.5245 137.57L52.4559 137.949L48.0105 140.73L49.0689 145.491L48.1799 145.112Z" fill="white"/>
<path d="M43.3973 134.452C43.7783 135.084 43.99 135.801 43.99 136.517C43.99 137.275 43.8207 137.949 43.3973 138.666C42.9739 139.382 42.4659 139.888 41.8308 140.267C41.1958 140.646 40.476 140.815 39.714 140.815C38.9519 140.815 38.2322 140.604 37.5124 140.183C36.7927 139.761 36.2423 139.256 35.8613 138.624C35.4802 137.992 35.2686 137.275 35.2686 136.559C35.2686 135.801 35.4379 135.084 35.8613 134.41C36.2846 133.736 36.7927 133.188 37.4278 132.809C38.0628 132.43 38.7825 132.261 39.5446 132.261C40.3067 132.261 41.0264 132.472 41.7462 132.893C42.4659 133.272 43.0163 133.778 43.3973 134.452ZM39.587 133.02C38.9942 133.02 38.4015 133.146 37.8935 133.483C37.3854 133.778 36.962 134.242 36.6233 134.789C36.2846 135.337 36.1576 135.927 36.1576 136.517C36.1576 137.107 36.327 137.697 36.6233 138.202C36.9197 138.708 37.3854 139.129 37.9358 139.466C38.4862 139.803 39.0789 139.972 39.714 139.972C40.3067 139.972 40.8994 139.845 41.4075 139.508C41.9155 139.171 42.3389 138.792 42.6776 138.202C43.0163 137.654 43.1433 137.065 43.1433 136.475C43.1433 135.885 42.9739 135.295 42.6776 134.789C42.3812 134.284 41.9155 133.862 41.3651 133.525C40.7724 133.23 40.222 133.062 39.587 133.02Z" fill="white"/>
<path d="M30.1436 125.773L31.7525 123.708L32.3875 124.214L31.2444 125.688L36.9599 130.112L38.103 128.638L38.7381 129.143L37.1293 131.208L36.7906 130.955C36.3249 130.66 35.7745 130.745 35.0971 131.292C34.4197 131.84 33.573 132.683 32.5992 133.862L30.8634 135.927L26.418 132.514L31.0327 126.573L30.1436 125.773ZM34.2504 130.997C34.8854 130.45 35.3935 130.155 35.8592 130.197L31.7948 127.079L27.6457 132.43L30.7787 134.832L32.0488 133.273C32.8956 132.303 33.6153 131.545 34.2504 130.997Z" fill="white"/>
<path d="M23.5827 129.944L22.9899 129.312L27.9011 124.508L19.2643 125.519L18.7139 124.972L24.6411 119.199L25.2338 119.831L20.3227 124.592L28.9595 123.581L29.5099 124.129L23.5827 129.944Z" fill="white"/>
<path d="M13.7581 117.514L15.5363 119.832L21.5058 115.281L22.0139 115.955L16.0443 120.506L17.8225 122.823L17.2298 123.287L13.123 117.978L13.7581 117.514Z" fill="white"/>
<path d="M15.2832 107.233L15.9183 106.854L18.9665 111.826L11.8962 116.124L8.93262 111.278L9.56768 110.899L12.0656 114.986L14.6058 113.469L12.3619 109.803L12.997 109.424L15.2409 113.09L17.8658 111.489L15.2832 107.233Z" fill="white"/>
<path d="M0.931641 89.4519L8.97572 87.5137L9.1874 88.3564L5.46173 89.2412L6.68951 94.2552L10.4152 93.3704L10.6269 94.2131L2.58279 96.1513L2.37111 95.3086L5.96977 94.4238L4.74199 89.4097L1.14333 90.2946L0.931641 89.4519Z" fill="white"/>
<path d="M5.84254 80.0141L6.30825 84.6068L8.6368 85.3652L8.72147 86.2501L0.0846745 83.3428L0 82.5001L7.87473 77.8652L7.9594 78.7922L5.84254 80.0141ZM5.16514 80.3933L0.931419 82.8371L5.58852 84.354L5.16514 80.3933Z" fill="white"/>
<path d="M1.86216 58.862C2.32787 58.3143 2.92059 57.9351 3.64032 57.7244C4.36005 57.5137 5.07979 57.4716 5.8842 57.6401C6.64627 57.8087 7.32366 58.1036 7.91638 58.6092C8.46677 59.0727 8.89014 59.6626 9.10183 60.3368C9.35585 61.0109 9.35585 61.7272 9.22884 62.4856C9.10183 63.1177 8.89014 63.6654 8.59378 64.171C8.29742 64.6766 7.91638 65.0559 7.45067 65.3087L7.0273 64.6766C7.78937 64.171 8.29742 63.4126 8.5091 62.4014C8.63612 61.8115 8.59378 61.2637 8.42443 60.7581C8.25508 60.2525 7.95872 59.789 7.53535 59.4098C7.11198 59.0306 6.64627 58.7778 6.05354 58.6092L5.2068 62.7806L4.48707 62.6542L5.33381 58.4828C4.74109 58.4407 4.23304 58.525 3.725 58.6935C3.21695 58.9042 2.79358 59.1991 2.45488 59.6205C2.11618 60.0418 1.86216 60.5053 1.77748 61.053C1.5658 62.0643 1.73515 62.9491 2.24319 63.7497L1.60813 64.171C1.26944 63.7497 1.05775 63.2441 0.973075 62.6542C0.888401 62.1064 0.888401 61.4744 1.01541 60.8424C1.05775 60.0839 1.35411 59.4098 1.86216 58.862Z" fill="white"/>
<path d="M7.70616 52.8791L7.11344 54.6909L10.7121 55.8707L10.4581 56.6713L2.54102 54.0589L2.79504 53.2583L6.30903 54.4381L6.90175 52.6263L4.23451 48.7921L4.53087 47.9072L7.4098 52.0786L12.4903 50.351L12.1939 51.3201L7.70616 52.8791Z" fill="white"/>
<path d="M13.1668 47.8649C12.5741 48.2862 11.8967 48.5812 11.1346 48.6233C10.3725 48.7076 9.6528 48.539 8.93307 48.202C8.21333 47.8649 7.62061 47.4014 7.19724 46.7694C6.77387 46.1795 6.51984 45.4632 6.47751 44.7469C6.43517 44.0306 6.56218 43.2301 6.94322 42.5138C7.19724 41.966 7.53594 41.5025 7.95931 41.1233C8.38268 40.7441 8.80606 40.4492 9.35644 40.3228L9.61046 41.0812C8.72138 41.3761 8.08632 42.0081 7.66295 42.893C7.36659 43.4829 7.28191 44.0728 7.32425 44.7048C7.36659 45.3368 7.57828 45.8845 7.91697 46.348C8.25567 46.8536 8.72138 47.2329 9.3141 47.4857C9.90682 47.7385 10.4995 47.8649 11.0923 47.8227C11.685 47.7806 12.2354 47.5699 12.7434 47.1907C13.2515 46.8115 13.6325 46.348 13.9289 45.7581C14.3522 44.8733 14.3946 43.9885 14.0559 43.1458L14.8179 42.893C15.0296 43.3986 15.1143 43.9042 15.072 44.4941C15.0296 45.084 14.9026 45.6317 14.6486 46.1795C14.2676 46.8536 13.8019 47.4435 13.1668 47.8649Z" fill="white"/>
<path d="M14.8611 37.6266L13.8451 39.2277L17.0627 41.2502L16.597 41.9665L9.61133 37.5845L10.077 36.8682L13.2523 38.8485L14.2684 37.2474L12.6173 32.9075L13.1253 32.1069L14.9035 36.826L20.238 36.3204L19.6876 37.1631L14.8611 37.6266Z" fill="white"/>
<path d="M18.5019 25.2388L21.5925 32.486C21.8042 32.9916 21.8889 33.4972 21.8889 33.9185C21.8465 34.3399 21.7195 34.7191 21.4232 35.0562C21.2115 35.309 20.9574 35.5197 20.6187 35.6882L20.2377 35.0562C20.4917 34.8876 20.7034 34.7191 20.8728 34.5506C21.2115 34.1292 21.2538 33.5815 20.9998 32.9494L20.8304 32.5281L13.7178 31.1798L14.3105 30.4635L20.4917 31.6854L17.9515 25.8708L18.5019 25.2388Z" fill="white"/>
<path d="M24.4715 20.3512C25.2336 20.309 25.9533 20.5618 26.5884 21.1939C27.2234 21.8259 27.4774 22.5 27.3928 23.3006C27.3081 24.059 26.8847 24.8175 26.165 25.5759L24.5562 27.1349L26.419 28.9888L25.7839 29.6208L19.9414 23.7219L22.1429 21.5309C22.905 20.8146 23.6671 20.3933 24.4715 20.3512ZM26.546 23.3427C26.5884 22.795 26.419 22.2894 25.9533 21.8259C25.4876 21.3624 24.9795 21.1517 24.3868 21.1939C23.7941 21.236 23.2437 21.5731 22.651 22.1208L21.0845 23.6798L24.0058 26.6292L25.5723 25.0703C26.165 24.4804 26.5037 23.8905 26.546 23.3427Z" fill="white"/>
<path d="M32.5148 22.753C31.7527 22.8794 31.033 22.7951 30.3556 22.5002C29.6782 22.2052 29.0855 21.7839 28.5774 21.1518C28.0694 20.5198 27.8154 19.8457 27.6883 19.0872C27.6037 18.3709 27.6883 17.6547 27.9847 16.9384C28.2811 16.2642 28.7468 15.6322 29.4242 15.1687C29.9322 14.7895 30.4403 14.5367 30.9483 14.3681C31.4987 14.1996 32.0067 14.1996 32.5571 14.2839L32.4725 15.0423C31.541 14.9159 30.6943 15.1687 29.9322 15.7586C29.4242 16.1378 29.0431 16.6434 28.7891 17.1912C28.5351 17.7389 28.4504 18.3288 28.5351 18.9187C28.6198 19.5086 28.8315 20.0563 29.2548 20.562C29.6359 21.0676 30.1439 21.4468 30.6943 21.6575C31.2447 21.8681 31.8374 21.9524 32.4301 21.8681C33.0228 21.7839 33.6156 21.5311 34.1236 21.1518C34.928 20.562 35.3514 19.8035 35.4361 18.8766L36.1981 18.9608C36.1558 19.5086 35.9864 20.0142 35.6901 20.4777C35.3937 20.9833 35.0127 21.4046 34.547 21.7839C33.9543 22.3316 33.2769 22.6266 32.5148 22.753Z" fill="white"/>
<path d="M34.124 11.9243L34.8861 11.5029L38.3577 17.4018L39.4585 8.84845L40.1359 8.46924L44.3273 15.59L43.5652 16.0114L40.0936 10.1125L38.9505 18.6659L38.2731 19.0451L34.124 11.9243Z" fill="white"/>
<path d="M51.9466 4.00318C52.6663 4.12959 53.3014 4.42453 53.8518 4.88801C54.4022 5.3515 54.8255 5.98352 55.1219 6.69981C55.4182 7.4161 55.5029 8.17453 55.3759 8.89082C55.2489 9.60711 54.9949 10.2813 54.5292 10.829C54.0635 11.3768 53.4707 11.7981 52.751 12.0931C52.0736 12.3459 51.3539 12.4301 50.6765 12.3459C49.9991 12.2616 49.364 12.0088 48.8136 11.5874C48.2633 11.1661 47.8399 10.6183 47.5012 9.94419L45.8924 10.5341L47.2472 14.0734L46.4428 14.3683L43.5215 6.65768L44.3259 6.36273L45.6383 9.77565L47.2472 9.18576C47.0355 8.51161 47.0355 7.79531 47.1625 7.16329C47.2895 6.48914 47.6282 5.89925 48.0516 5.39363C48.5173 4.88801 49.0677 4.5088 49.7451 4.25599C50.5071 3.96105 51.2269 3.91891 51.9466 4.00318ZM53.8941 10.3655C54.2751 9.90205 54.4868 9.39644 54.5715 8.80655C54.6562 8.21666 54.5715 7.62678 54.3598 6.99475C54.1481 6.36273 53.7671 5.89925 53.3437 5.52004C52.878 5.14082 52.37 4.88801 51.8196 4.80374C51.2692 4.71948 50.6765 4.76161 50.0838 4.97228C49.5334 5.18296 49.0677 5.52004 48.6866 5.98352C48.3056 6.447 48.0939 6.95262 48.0092 7.54251C47.9246 8.13239 48.0092 8.72228 48.2209 9.3543C48.4326 9.98632 48.8136 10.4498 49.237 10.829C49.7027 11.2082 50.2108 11.461 50.7612 11.5453C51.3115 11.6296 51.9043 11.5874 52.4546 11.3768C53.0897 11.1661 53.5554 10.829 53.8941 10.3655Z" fill="white"/>
</svg>
