<svg width="150" height="150" viewBox="0 0 150 150" fill="none" xmlns="http://www.w3.org/2000/svg">
<path d="M76.1873 10.0833C75.3408 9.59952 74.6958 8.9142 74.2523 8.06763C73.8089 7.22106 73.6073 6.29386 73.6476 5.24572C73.6879 4.19759 73.9701 3.3107 74.4942 2.46413C75.0183 1.65787 75.7036 1.01286 76.5905 0.609734C77.4774 0.166291 78.4449 -0.0352738 79.493 0.00503912C80.2993 0.0453521 81.0249 0.206604 81.6699 0.488795C82.3149 0.770985 82.8793 1.17411 83.3227 1.7385L82.5568 2.42382C81.7505 1.53693 80.7024 1.09349 79.4527 1.01286C78.6061 0.97255 77.8402 1.1338 77.1145 1.49662C76.3889 1.85944 75.8245 2.3835 75.4214 3.02851C75.0183 3.67352 74.7764 4.43947 74.7361 5.28604C74.6958 6.13261 74.857 6.89856 75.2198 7.58388C75.5826 8.2692 76.1067 8.83358 76.792 9.23671C77.4774 9.63984 78.2433 9.88171 79.0899 9.92203C80.3799 9.96234 81.4683 9.59952 82.3149 8.75295L83.0002 9.5189C82.5165 10.0027 81.9118 10.3655 81.2265 10.6073C80.5411 10.8492 79.7752 10.9702 79.0092 10.9299C77.9611 10.8492 76.9936 10.6073 76.1873 10.0833Z" fill="#080A0F"/>
<path d="M89.3292 7.22129L86.9105 6.73753L85.9429 11.5348L84.8545 11.2929L87.0314 0.811523L88.1198 1.0534L87.1523 5.72971L89.5711 6.21346L94.0862 2.22248L95.2956 2.46436L90.3371 6.77784L93.3605 13.0264L92.0705 12.7442L89.3292 7.22129Z" fill="#080A0F"/>
<path d="M101.907 13.2678L96.3037 11.1312L94.0865 13.3484L92.998 12.9453L101.383 4.68115L102.431 5.08428L103.197 16.8557L102.068 16.4122L101.907 13.2678ZM101.867 12.26L101.504 5.97117L97.0697 10.4459L101.867 12.26Z" fill="#080A0F"/>
<path d="M115.976 11.8569L110.615 21.1289L109.647 20.5645L111.865 16.7348C110.615 16.5735 109.486 16.251 108.559 15.6866C107.47 15.0416 106.785 14.316 106.463 13.4291C106.18 12.5422 106.301 11.615 106.825 10.6878L108.599 7.62402L109.567 8.1884L107.874 11.1313C107.47 11.8569 107.349 12.5422 107.591 13.1872C107.793 13.8322 108.317 14.3966 109.123 14.8804C110.05 15.4044 111.139 15.7269 112.348 15.8479L114.969 11.2925L115.976 11.8569Z" fill="#080A0F"/>
<path d="M120.33 25.1604L115.734 21.3307L112.912 22.7013L112.025 21.9354L122.628 16.856L123.474 17.5816L120.37 28.9498L119.443 28.1839L120.33 25.1604ZM120.612 24.1929L122.305 18.1057L116.661 20.8873L120.612 24.1929Z" fill="#080A0F"/>
<path d="M129.723 23.2658L130.448 24.1124L123.636 29.7965L134.843 29.3531L135.488 30.1593L127.264 37.0528L126.538 36.2063L133.351 30.5221L122.144 30.9656L121.499 30.1593L129.723 23.2658ZM132.424 24.4752C132.424 23.9108 132.625 23.4271 133.109 23.0239L133.633 23.6689C133.311 23.9511 133.19 24.2736 133.19 24.6364C133.19 24.9993 133.351 25.4024 133.674 25.7652C133.996 26.128 134.319 26.3699 134.722 26.4505C135.084 26.5312 135.447 26.4505 135.77 26.2087L136.294 26.8537C135.81 27.2568 135.286 27.3777 134.722 27.2568C134.157 27.1358 133.633 26.773 133.149 26.2087C132.706 25.604 132.424 25.0396 132.424 24.4752Z" fill="#080A0F"/>
<path d="M140.97 40.8423L139.035 37.6172L130.65 42.5757L130.086 41.6082L138.471 36.6497L136.536 33.4247L137.383 32.9409L141.777 40.3988L140.97 40.8423Z" fill="#080A0F"/>
<path d="M137.02 53.944L136.133 54.3068L133.23 47.2923L143.147 43.2207L145.929 50.0336L145.042 50.3964L142.664 44.6317L139.116 46.0829L141.212 51.2027L140.326 51.5655L138.229 46.4457L134.561 47.9776L137.02 53.944Z" fill="#080A0F"/>
<path d="M143.994 79.2602L144.155 76.8011L139.237 76.4786L139.318 75.3901L150.001 76.1158L149.92 77.2042L145.123 76.8817L144.961 79.3408L149.517 83.2915L149.436 84.5009L144.518 80.1874L138.713 84.0171L138.794 82.7271L143.994 79.2602Z" fill="#080A0F"/>
<path d="M139.68 92.5634L141.051 86.7583L138.551 84.8636L138.833 83.7349L148.186 90.9509L147.944 92.0393L136.334 94.3372L136.616 93.1681L139.68 92.5634ZM140.688 92.3618L146.896 91.1524L141.857 87.3227L140.688 92.3618Z" fill="#080A0F"/>
<path d="M142.3 105.464L143.671 101.956L134.601 98.3685L135.004 97.3203L144.074 100.908L145.445 97.4009L146.372 97.7638L143.187 105.826L142.3 105.464Z" fill="#080A0F"/>
<path d="M131.819 110.261L134.802 105.061L132.948 102.521L133.553 101.513L140.406 111.108L139.841 112.075L128.11 110.987L128.715 109.939L131.819 110.261ZM132.827 110.342L139.116 110.987L135.407 105.867L132.827 110.342Z" fill="#080A0F"/>
<path d="M129.844 125.58L121.62 118.687L122.346 117.84L129.804 124.089L133.15 120.138L130.489 117.759C129.401 116.752 128.554 115.905 127.99 115.179C127.425 114.454 127.103 113.809 126.982 113.204C126.901 112.64 127.062 112.075 127.465 111.592C127.627 111.39 127.869 111.188 128.111 110.987L128.836 111.712C128.675 111.833 128.554 111.954 128.473 112.075C128.191 112.438 128.07 112.801 128.191 113.244C128.272 113.688 128.554 114.212 129.038 114.817C129.521 115.421 130.207 116.107 131.134 116.953L134.561 120.017L129.844 125.58Z" fill="#080A0F"/>
<path d="M118.436 122.597C119.404 122.436 120.331 122.476 121.258 122.839C122.145 123.161 122.951 123.726 123.596 124.532C124.241 125.338 124.644 126.185 124.806 127.152C124.967 128.08 124.846 129.047 124.483 129.934C124.12 130.861 123.516 131.627 122.709 132.312C121.903 132.998 121.016 133.401 120.049 133.602C119.081 133.804 118.154 133.683 117.267 133.361C116.38 133.038 115.574 132.474 114.929 131.667C114.284 130.861 113.881 129.974 113.719 129.047C113.558 128.12 113.679 127.152 114.042 126.265C114.405 125.379 115.01 124.572 115.816 123.887C116.541 123.202 117.469 122.758 118.436 122.597ZM114.969 126.548C114.687 127.273 114.606 128.039 114.727 128.805C114.848 129.571 115.171 130.297 115.735 130.942C116.259 131.587 116.904 132.071 117.63 132.353C118.355 132.635 119.121 132.716 119.887 132.554C120.653 132.433 121.379 132.071 122.024 131.546C122.669 131.022 123.153 130.377 123.435 129.652C123.717 128.926 123.798 128.16 123.677 127.394C123.556 126.628 123.233 125.903 122.709 125.258C122.185 124.613 121.54 124.129 120.815 123.887C120.089 123.645 119.323 123.524 118.557 123.685C117.791 123.806 117.065 124.169 116.42 124.693C115.775 125.217 115.251 125.822 114.969 126.548Z" fill="#080A0F"/>
<path d="M108.357 140.415L113.316 137.553L108.438 129.127L109.406 128.563L114.767 137.875L108.841 141.262L108.357 140.415Z" fill="#080A0F"/>
<path d="M77.881 138.883C78.7275 139.327 79.4129 139.972 79.9369 140.818C80.461 141.665 80.7029 142.552 80.7029 143.6C80.7029 144.648 80.5013 145.575 80.0176 146.422C79.5338 147.268 78.8888 147.913 78.0422 148.397C77.1957 148.881 76.2281 149.123 75.18 149.163C74.3737 149.163 73.6481 149.042 72.9628 148.8C72.2775 148.558 71.7131 148.155 71.2293 147.671L71.955 146.946C72.8015 147.792 73.89 148.196 75.1397 148.155C75.9863 148.155 76.7522 147.954 77.4375 147.551C78.1228 147.147 78.6469 146.623 79.05 145.938C79.4129 145.253 79.6144 144.487 79.6144 143.68C79.6144 142.834 79.3726 142.108 78.9694 141.423C78.5663 140.738 78.0019 140.214 77.3166 139.851C76.6313 139.488 75.825 139.286 74.9784 139.286C73.6884 139.327 72.6403 139.77 71.834 140.617L71.1084 139.891C71.5518 139.367 72.1565 138.964 72.8015 138.682C73.4869 138.399 74.2125 138.238 75.0188 138.238C76.0669 138.198 77.0344 138.44 77.881 138.883Z" fill="#080A0F"/>
<path d="M64.8999 142.431L67.3187 142.794L68.0847 137.916L69.1731 138.077L67.5203 148.679L66.4318 148.518L67.1575 143.761L64.7387 143.398L60.4252 147.591L59.2158 147.389L63.9324 142.834L60.6268 136.747L61.9168 136.948L64.8999 142.431Z" fill="#080A0F"/>
<path d="M52.0394 137.029L57.7236 138.883L59.8198 136.545L60.9486 136.908L52.9666 145.575L51.9185 145.213L50.5479 133.481L51.6766 133.844L52.0394 137.029ZM52.1201 138.037L52.8054 144.326L57.0382 139.649L52.1201 138.037Z" fill="#080A0F"/>
<path d="M38.0918 139.125L43.01 129.571L43.9775 130.055L41.9618 134.005C43.2115 134.086 44.3403 134.368 45.3078 134.892C46.4366 135.457 47.1622 136.182 47.4847 137.069C47.8072 137.916 47.7266 138.843 47.2428 139.851L45.6303 142.995L44.6225 142.471L46.1947 139.447C46.5575 138.722 46.6381 138.037 46.3963 137.392C46.1544 136.747 45.59 136.222 44.7434 135.779C43.7759 135.295 42.6875 135.013 41.4781 134.973L39.0593 139.649L38.0918 139.125Z" fill="#080A0F"/>
<path d="M33.0524 126.064L37.8093 129.652L40.5506 128.12L41.4778 128.845L31.1174 134.489L30.2305 133.804L32.7702 122.274L33.7377 123L33.0524 126.064ZM32.8508 127.031L31.4399 133.199L36.9627 130.135L32.8508 127.031Z" fill="#080A0F"/>
<path d="M21.0398 127.353C21.0801 127.918 20.8786 128.402 20.4351 128.845L19.8304 128.2C20.1126 127.918 20.2739 127.595 20.2336 127.192C20.1932 126.829 20.032 126.426 19.6692 126.063C19.3467 125.701 18.9839 125.499 18.621 125.418C18.2582 125.338 17.8954 125.459 17.6132 125.741L17.0488 125.136C17.5326 124.733 18.0163 124.572 18.5807 124.653C19.1451 124.733 19.6692 125.056 20.1932 125.62C20.677 126.225 20.9592 126.789 21.0398 127.353ZM23.7811 128.402L23.0151 127.595L29.5458 121.548L18.3792 122.556L17.6938 121.79L25.5549 114.494L26.3208 115.3L19.7901 121.347L30.9568 120.379L31.6421 121.145L23.7811 128.402Z" fill="#080A0F"/>
<path d="M11.6868 111.43L13.7831 114.575L21.9263 109.213L22.531 110.14L14.3878 115.502L16.4841 118.646L15.6778 119.17L10.9209 111.954L11.6868 111.43Z" fill="#080A0F"/>
<path d="M14.952 98.1268L15.8389 97.7236L19.0639 104.577L9.34851 109.132L6.2041 102.481L7.09099 102.077L9.75164 107.721L13.2186 106.109L10.8401 101.11L11.727 100.707L14.1054 105.706L17.6933 104.012L14.952 98.1268Z" fill="#080A0F"/>
<path d="M6.97007 69.021L6.76851 71.4801L11.6867 71.8832L11.6061 72.9717L0.882812 72.0848L0.963438 70.9964L5.76068 71.3592L5.96225 68.9001L1.44719 64.9091L1.52782 63.6997L6.40569 68.0938L12.2511 64.3447L12.1301 65.6347L6.97007 69.021Z" fill="#080A0F"/>
<path d="M11.4045 55.7581L9.99352 61.5631L12.4526 63.4982L12.1704 64.6269L2.89844 57.3706L3.18063 56.2822L14.7505 54.0649L14.4683 55.234L11.4045 55.7581ZM10.3966 55.9596L4.18845 57.0884L9.18726 60.9585L10.3966 55.9596Z" fill="#080A0F"/>
<path d="M8.90419 42.8577L7.49323 46.3649L16.5233 50.0334L16.1202 51.0815L7.09011 47.413L5.67915 50.9203L4.75195 50.5574L8.0173 42.5352L8.90419 42.8577Z" fill="#080A0F"/>
<path d="M19.4675 38.1813L16.444 43.3414L18.2581 45.9214L17.6534 46.9292L10.8809 37.2541L11.4452 36.2866L23.1763 37.496L22.5716 38.5441L19.4675 38.1813ZM18.4597 38.0604L12.1709 37.3751L15.8394 42.5351L18.4597 38.0604Z" fill="#080A0F"/>
<path d="M21.5633 22.8623L29.7065 29.8364L28.9809 30.683L21.6036 24.3539L18.2173 28.2642L20.878 30.683C21.9664 31.6908 22.813 32.5374 23.3774 33.3034C23.9418 34.029 24.2643 34.674 24.3449 35.2787C24.4255 35.8431 24.2643 36.4075 23.8611 36.8912C23.6999 37.0928 23.458 37.2943 23.2161 37.4556L22.4905 36.73C22.6517 36.609 22.7727 36.5284 22.8533 36.3671C23.1355 36.0446 23.2564 35.6415 23.1758 35.1981C23.0952 34.7546 22.813 34.2306 22.3292 33.6259C21.8455 33.0615 21.1602 32.3359 20.233 31.4893L16.8467 28.3852L21.5633 22.8623Z" fill="#080A0F"/>
<path d="M32.9716 26.0068C32.0041 26.168 31.0769 26.0874 30.19 25.7246C29.3031 25.3618 28.5372 24.7974 27.8922 23.9911C27.2472 23.1849 26.844 22.298 26.7231 21.3708C26.6021 20.4033 26.7231 19.4761 27.0859 18.5892C27.4487 17.7023 28.0534 16.8961 28.9 16.2107C29.7466 15.5254 30.6334 15.1223 31.601 14.961C32.5685 14.7998 33.4957 14.8804 34.3826 15.2432C35.2694 15.606 36.0757 16.1704 36.7207 16.9767C37.3657 17.7829 37.7688 18.6698 37.8898 19.6373C38.0107 20.6048 37.8898 21.532 37.527 22.4189C37.1641 23.3058 36.5595 24.1121 35.7129 24.7571C34.8663 25.4021 33.9391 25.8052 32.9716 26.0068ZM36.4788 22.0561C36.761 21.3305 36.8416 20.5645 36.7207 19.7986C36.5998 19.0326 36.2773 18.307 35.7532 17.662C35.2291 17.017 34.6244 16.5332 33.8585 16.251C33.1329 15.9689 32.3669 15.8882 31.601 16.0092C30.835 16.1301 30.1094 16.4526 29.4644 16.9767C28.8194 17.5007 28.3356 18.1458 28.0131 18.8714C27.7309 19.597 27.61 20.363 27.7309 21.1289C27.8518 21.8949 28.1744 22.6205 28.6984 23.2655C29.2225 23.9105 29.8675 24.3943 30.5931 24.6765C31.3188 24.9586 32.0847 25.0393 32.8507 24.9183C33.6166 24.7974 34.3422 24.4749 35.0276 23.9105C35.7129 23.4267 36.1966 22.7817 36.4788 22.0561Z" fill="#080A0F"/>
<path d="M43.2518 8.2289L38.253 11.0105L43.01 19.5165L42.0424 20.0809L36.8018 10.7283L42.7681 7.38232L43.2518 8.2289Z" fill="#080A0F"/>
</svg>
