<svg width="116" height="50" viewBox="0 0 116 50" fill="none" xmlns="http://www.w3.org/2000/svg">
<path d="M14.016 4.176C14.1013 4.13333 14.2293 4.06933 14.4 3.984C14.5707 3.89867 14.7733 3.856 15.008 3.856C15.4987 3.856 15.6907 3.984 15.584 4.24C15.4987 4.47467 15.3067 4.74133 15.008 5.04L15.616 5.168C16.0427 4.72 16.4587 4.38933 16.864 4.176C17.2907 3.96267 17.6853 3.856 18.048 3.856C18.24 3.856 18.4213 3.888 18.592 3.952C18.784 3.99467 18.9653 4.06933 19.136 4.176L19.296 3.6H17.6H13.856L14.016 4.176ZM4.096 26H6.624V25.456V3.6H4.096V5.936V26ZM1.76 4.176C1.93067 4.06933 2.09067 3.99467 2.24 3.952C2.38933 3.888 2.56 3.856 2.752 3.856C3.17867 3.856 3.50933 4.00533 3.744 4.304C3.97867 4.58133 4.096 4.976 4.096 5.488C4.096 5.57333 4.224 5.63733 4.48 5.68C4.75733 5.72267 5.04533 5.744 5.344 5.744C5.664 5.744 5.952 5.72267 6.208 5.68C6.48533 5.63733 6.624 5.57333 6.624 5.488C6.624 5.104 6.60267 4.816 6.56 4.624C6.53867 4.432 6.51733 4.28267 6.496 4.176C6.496 4.048 6.496 3.952 6.496 3.888C6.51733 3.824 6.56 3.728 6.624 3.6H1.6L1.76 4.176ZM1.6 26H9.12L8.96 25.424C8.78933 25.5307 8.62933 25.616 8.48 25.68C8.33067 25.7227 8.16 25.744 7.968 25.744C7.60533 25.744 7.28533 25.6267 7.008 25.392C6.752 25.136 6.624 24.7093 6.624 24.112C6.624 23.8133 6.496 23.6853 6.24 23.728C6.00533 23.7707 5.70667 23.8453 5.344 23.952C5.00267 23.8453 4.704 23.7707 4.448 23.728C4.21333 23.6853 4.096 23.8133 4.096 24.112C4.096 24.3893 4.064 24.624 4 24.816C3.936 25.008 3.85067 25.168 3.744 25.296C3.616 25.4667 3.46667 25.584 3.296 25.648C3.12533 25.712 2.944 25.744 2.752 25.744C2.56 25.744 2.38933 25.7227 2.24 25.68C2.09067 25.616 1.93067 25.5307 1.76 25.424L1.6 26ZM8.96 4.176L9.12 3.6H4.096C4.16 3.728 4.192 3.824 4.192 3.888C4.21333 3.952 4.21333 4.048 4.192 4.176C4.192 4.28267 4.17067 4.432 4.128 4.624C4.10667 4.816 4.096 5.104 4.096 5.488C4.096 5.57333 4.224 5.63733 4.48 5.68C4.75733 5.72267 5.04533 5.744 5.344 5.744C5.664 5.744 5.952 5.72267 6.208 5.68C6.48533 5.63733 6.624 5.57333 6.624 5.488C6.624 4.976 6.74133 4.58133 6.976 4.304C7.21067 4.00533 7.54133 3.856 7.968 3.856C8.16 3.856 8.33067 3.888 8.48 3.952C8.62933 3.99467 8.78933 4.06933 8.96 4.176ZM15.648 26H18.176V25.456L9.184 11.344L7.52 12.912L15.648 26ZM13.152 26H20.672L20.512 25.424C20.3413 25.5307 20.1813 25.616 20.032 25.68C19.8827 25.7227 19.712 25.744 19.52 25.744C19.1573 25.744 18.7733 25.5947 18.368 25.296C17.9627 24.9973 17.6107 24.6027 17.312 24.112C17.248 24.0053 17.056 23.9307 16.736 23.888C16.416 23.8453 16.0747 23.824 15.712 23.824C15.3707 23.824 15.0613 23.856 14.784 23.92C14.528 23.9627 14.432 24.0373 14.496 24.144C14.7733 24.5707 14.9333 24.944 14.976 25.264C15.0187 25.584 14.7947 25.744 14.304 25.744C14.112 25.744 13.9413 25.7227 13.792 25.68C13.6427 25.616 13.4827 25.5307 13.312 25.424L13.152 26ZM5.408 14.416H6.144L17.216 3.6H16.48L5.408 14.416ZM26.3773 3.6V26H28.9053V4.144V3.6H26.3773ZM23.8813 3.6L24.0413 4.176C24.2119 4.06933 24.3719 3.99467 24.5213 3.952C24.6706 3.888 24.8413 3.856 25.0333 3.856C25.2253 3.856 25.4066 3.888 25.5773 3.952C25.7479 4.016 25.8973 4.13333 26.0253 4.304C26.1319 4.432 26.2173 4.592 26.2812 4.784C26.3453 4.976 26.3773 5.21067 26.3773 5.488C26.3773 5.78667 26.4946 5.91467 26.7293 5.872C26.9853 5.82933 27.2839 5.75467 27.6253 5.648C27.9879 5.75467 28.2866 5.82933 28.5213 5.872C28.7773 5.91467 28.9053 5.78667 28.9053 5.488C28.9053 4.89067 29.0333 4.47467 29.2893 4.24C29.5666 3.984 29.8866 3.856 30.2493 3.856C30.4413 3.856 30.6119 3.888 30.7613 3.952C30.9106 3.99467 31.0706 4.06933 31.2413 4.176L31.4013 3.6H23.8813ZM26.3773 3.6V26H28.9053V4.144V3.6H26.3773ZM23.8813 3.6L24.0413 4.176C24.2119 4.06933 24.3719 3.99467 24.5213 3.952C24.6706 3.888 24.8413 3.856 25.0333 3.856C25.2253 3.856 25.4066 3.888 25.5773 3.952C25.7479 4.016 25.8973 4.13333 26.0253 4.304C26.1319 4.432 26.2173 4.592 26.2812 4.784C26.3453 4.976 26.3773 5.21067 26.3773 5.488C26.3773 5.78667 26.4946 5.91467 26.7293 5.872C26.9853 5.82933 27.2839 5.75467 27.6253 5.648C27.9879 5.75467 28.2866 5.82933 28.5213 5.872C28.7773 5.91467 28.9053 5.78667 28.9053 5.488C28.9053 4.89067 29.0333 4.47467 29.2893 4.24C29.5666 3.984 29.8866 3.856 30.2493 3.856C30.4413 3.856 30.6119 3.888 30.7613 3.952C30.9106 3.99467 31.0706 4.06933 31.2413 4.176L31.4013 3.6H23.8813ZM26.3773 25.328V26V25.328ZM26.3773 25.328V26H39.4973V25.328H26.3773ZM37.3853 26H39.8813L38.1533 18.448L37.4493 18.768C37.5773 18.896 37.6946 19.088 37.8013 19.344C37.9079 19.5787 38.0039 19.8347 38.0893 20.112C38.1959 20.368 38.2813 20.6347 38.3453 20.912C38.4093 21.168 38.4519 21.3707 38.4733 21.52C38.6439 22.3733 38.6119 23.056 38.3773 23.568C38.1426 24.08 37.8119 24.464 37.3853 24.72C36.9799 24.976 36.5213 25.1467 36.0093 25.232C35.4973 25.296 35.0386 25.328 34.6333 25.328L37.3853 26ZM45.5648 26H48.0928V25.456V3.6H45.5648V26ZM45.5648 4.272H57.1488V3.6H45.5648V4.272ZM55.0368 3.6L52.2848 4.272C52.6901 4.272 53.1488 4.31467 53.6608 4.4C54.1728 4.464 54.6314 4.624 55.0368 4.88C55.4634 5.136 55.7941 5.52 56.0288 6.032C56.2634 6.52267 56.2954 7.20533 56.1248 8.08C56.1034 8.22933 56.0608 8.44267 55.9968 8.72C55.9328 8.976 55.8474 9.24267 55.7408 9.52C55.6554 9.776 55.5594 10.032 55.4528 10.288C55.3461 10.5227 55.2288 10.704 55.1008 10.832L55.8048 11.152L57.5328 3.6H55.0368ZM43.0688 3.6L43.2288 4.176C43.3994 4.06933 43.5594 3.99467 43.7088 3.952C43.8581 3.888 44.0288 3.856 44.2208 3.856C44.4128 3.856 44.5941 3.888 44.7648 3.952C44.9354 4.016 45.0848 4.13333 45.2128 4.304C45.3194 4.432 45.4048 4.592 45.4688 4.784C45.5328 4.976 45.5648 5.21067 45.5648 5.488C45.5648 5.78667 45.6821 5.91467 45.9168 5.872C46.1728 5.82933 46.4714 5.75467 46.8128 5.648C47.1754 5.75467 47.4741 5.82933 47.7088 5.872C47.9648 5.91467 48.0928 5.78667 48.0928 5.488C48.0928 4.89067 48.2421 4.53867 48.5408 4.432C48.8608 4.32533 49.1914 4.272 49.5328 4.272C49.7248 4.272 49.8848 4.25067 50.0128 4.208C50.1408 4.144 50.2901 4.16533 50.4608 4.272L50.5888 3.6H45.1808H44.7328H43.0688ZM47.0688 13.616V14.16L52.0288 14.32V13.616H47.0688ZM52.3168 9.744L51.7088 10.224C52.5621 11.248 52.8928 12.0693 52.7008 12.688C52.5088 13.3067 51.9328 13.616 50.9728 13.616V14.288C51.5488 14.288 52.0394 14.3307 52.4448 14.416C52.8501 14.5013 53.1808 14.672 53.4368 14.928C53.6928 15.184 53.8848 15.5467 54.0128 16.016C54.1621 16.4853 54.2581 17.0933 54.3008 17.84H54.9408L52.3168 9.744ZM43.0688 26H50.5888L50.4288 25.424C50.2581 25.5307 50.0981 25.616 49.9488 25.68C49.7994 25.7227 49.6288 25.744 49.4368 25.744C49.0741 25.744 48.7541 25.6267 48.4768 25.392C48.2208 25.136 48.0928 24.7093 48.0928 24.112C48.0928 23.8133 47.9648 23.6853 47.7088 23.728C47.4741 23.7707 47.1754 23.8453 46.8128 23.952C46.4714 23.8453 46.1728 23.7707 45.9168 23.728C45.6821 23.6853 45.5648 23.8133 45.5648 24.112C45.5648 24.3893 45.5328 24.624 45.4688 24.816C45.4048 25.008 45.3194 25.168 45.2128 25.296C45.0848 25.4667 44.9354 25.584 44.7648 25.648C44.5941 25.712 44.4128 25.744 44.2208 25.744C44.0288 25.744 43.8581 25.7227 43.7088 25.68C43.5594 25.616 43.3994 25.5307 43.2288 25.424L43.0688 26ZM62.741 12.304C62.741 10.96 62.965 9.78667 63.413 8.784C63.8823 7.78133 64.501 6.96 65.269 6.32C66.037 5.65867 66.9117 5.168 67.893 4.848C68.8957 4.528 69.9303 4.368 70.997 4.368C71.7863 4.368 72.5437 4.48533 73.269 4.72C74.0157 4.93333 74.6877 5.22133 75.285 5.584C75.9037 5.94667 76.437 6.384 76.885 6.896C77.3543 7.408 77.717 7.952 77.973 8.528C78.549 8.54933 79.125 8.64533 79.701 8.816C80.1917 8.96533 80.7037 9.2 81.237 9.52C81.7917 9.81867 82.3037 10.256 82.773 10.832C82.389 9.744 81.845 8.74133 81.141 7.824C80.437 6.88533 79.6157 6.08533 78.677 5.424C77.7597 4.76267 76.7357 4.25067 75.605 3.888C74.4957 3.504 73.3223 3.312 72.085 3.312C70.5277 3.312 69.0557 3.61067 67.669 4.208C66.2823 4.80533 65.077 5.616 64.053 6.64C63.029 7.664 62.2183 8.86933 61.621 10.256C61.0237 11.6213 60.725 13.0933 60.725 14.672C60.725 16.2293 61.0237 17.7013 61.621 19.088C62.2183 20.4747 63.029 21.68 64.053 22.704C65.077 23.728 66.2823 24.5387 67.669 25.136C69.0557 25.7333 70.5277 26.032 72.085 26.032C73.301 26.032 74.453 25.8507 75.541 25.488C76.6503 25.1253 77.6637 24.624 78.581 23.984C79.4983 23.344 80.309 22.5867 81.013 21.712C81.717 20.816 82.2717 19.8347 82.677 18.768C82.421 18.768 82.197 18.768 82.005 18.768C81.8343 18.768 81.6743 18.7787 81.525 18.8C81.397 18.8 81.3437 18.8 81.365 18.8C81.173 19.6107 80.8637 20.3893 80.437 21.136C80.0103 21.8613 79.477 22.5013 78.837 23.056C78.197 23.6107 77.4503 24.0587 76.597 24.4C75.765 24.72 74.8263 24.88 73.781 24.88C72.3517 24.88 70.965 24.5493 69.621 23.888C68.2983 23.2053 67.125 22.2987 66.101 21.168C65.077 20.016 64.2557 18.6827 63.637 17.168C63.0397 15.632 62.741 14.0107 62.741 12.304ZM82.677 18.768L75.509 15.824L75.349 16.592C75.5197 16.5493 75.733 16.56 75.989 16.624C76.2663 16.6667 76.5437 16.7307 76.821 16.816C77.0983 16.9013 77.365 16.9973 77.621 17.104C77.877 17.1893 78.069 17.264 78.197 17.328C79.0077 17.6907 79.5623 18.1173 79.861 18.608C80.1597 19.0987 80.309 19.5893 80.309 20.08C80.309 20.592 80.2023 21.0827 79.989 21.552C79.7757 22 79.5303 22.3947 79.253 22.736L82.677 18.768ZM82.677 18.768L79.701 23.088C79.957 22.8747 80.1703 22.672 80.341 22.48C80.5117 22.288 80.6717 22.1067 80.821 21.936C80.9703 21.7653 81.1197 21.6267 81.269 21.52C81.4397 21.392 81.653 21.3067 81.909 21.264C82.3997 21.1787 82.8903 21.2533 83.381 21.488C83.8717 21.7227 84.3623 22.2027 84.853 22.928C84.9383 23.056 85.045 23.2373 85.173 23.472C85.3223 23.6853 85.461 23.9307 85.589 24.208C85.717 24.464 85.8237 24.72 85.909 24.976C86.0157 25.232 86.069 25.4453 86.069 25.616L86.773 25.328L82.677 18.768Z" fill="white"/>
<path d="M6.67 38V45H5.94V38.64H2.56L2.48 40.98C2.44667 41.9467 2.36667 42.7267 2.24 43.32C2.12 43.9067 1.93333 44.3467 1.68 44.64C1.42667 44.9267 1.09 45.07 0.67 45.07C0.49 45.07 0.303333 45.0467 0.11 45L0.17 44.34C0.283333 44.3667 0.393333 44.38 0.5 44.38C0.793333 44.38 1.03 44.2633 1.21 44.03C1.39667 43.7967 1.53667 43.4367 1.63 42.95C1.72333 42.4567 1.78667 41.8067 1.82 41L1.92 38H6.67ZM11.0316 45.05C10.5249 45.05 10.0682 44.9367 9.66156 44.71C9.2549 44.4767 8.9349 44.1567 8.70156 43.75C8.46823 43.3433 8.35156 42.8833 8.35156 42.37C8.35156 41.8567 8.46823 41.3967 8.70156 40.99C8.9349 40.5833 9.2549 40.2667 9.66156 40.04C10.0682 39.8133 10.5249 39.7 11.0316 39.7C11.5382 39.7 11.9949 39.8133 12.4016 40.04C12.8082 40.2667 13.1249 40.5833 13.3516 40.99C13.5849 41.3967 13.7016 41.8567 13.7016 42.37C13.7016 42.8833 13.5849 43.3433 13.3516 43.75C13.1249 44.1567 12.8082 44.4767 12.4016 44.71C11.9949 44.9367 11.5382 45.05 11.0316 45.05ZM11.0316 44.42C11.4049 44.42 11.7382 44.3367 12.0316 44.17C12.3316 43.9967 12.5649 43.7533 12.7316 43.44C12.8982 43.1267 12.9816 42.77 12.9816 42.37C12.9816 41.97 12.8982 41.6133 12.7316 41.3C12.5649 40.9867 12.3316 40.7467 12.0316 40.58C11.7382 40.4067 11.4049 40.32 11.0316 40.32C10.6582 40.32 10.3216 40.4067 10.0216 40.58C9.72823 40.7467 9.4949 40.9867 9.32156 41.3C9.1549 41.6133 9.07156 41.97 9.07156 42.37C9.07156 42.77 9.1549 43.1267 9.32156 43.44C9.4949 43.7533 9.72823 43.9967 10.0216 44.17C10.3216 44.3367 10.6582 44.42 11.0316 44.42ZM18.939 40.37H15.929V45H15.219V39.74H18.939V40.37ZM21.8909 45.05C21.3843 45.05 20.9276 44.9367 20.5209 44.71C20.1143 44.4767 19.7943 44.1567 19.5609 43.75C19.3276 43.3433 19.2109 42.8833 19.2109 42.37C19.2109 41.8567 19.3276 41.3967 19.5609 40.99C19.7943 40.5833 20.1143 40.2667 20.5209 40.04C20.9276 39.8133 21.3843 39.7 21.8909 39.7C22.3976 39.7 22.8543 39.8133 23.2609 40.04C23.6676 40.2667 23.9843 40.5833 24.2109 40.99C24.4443 41.3967 24.5609 41.8567 24.5609 42.37C24.5609 42.8833 24.4443 43.3433 24.2109 43.75C23.9843 44.1567 23.6676 44.4767 23.2609 44.71C22.8543 44.9367 22.3976 45.05 21.8909 45.05ZM21.8909 44.42C22.2643 44.42 22.5976 44.3367 22.8909 44.17C23.1909 43.9967 23.4243 43.7533 23.5909 43.44C23.7576 43.1267 23.8409 42.77 23.8409 42.37C23.8409 41.97 23.7576 41.6133 23.5909 41.3C23.4243 40.9867 23.1909 40.7467 22.8909 40.58C22.5976 40.4067 22.2643 40.32 21.8909 40.32C21.5176 40.32 21.1809 40.4067 20.8809 40.58C20.5876 40.7467 20.3543 40.9867 20.1809 41.3C20.0143 41.6133 19.9309 41.97 19.9309 42.37C19.9309 42.77 20.0143 43.1267 20.1809 43.44C20.3543 43.7533 20.5876 43.9967 20.8809 44.17C21.1809 44.3367 21.5176 44.42 21.8909 44.42ZM29.583 40.37H27.593V45H26.883V40.37H24.893V39.74H29.583V40.37ZM30.6096 39.74H31.3196V43.92L34.8296 39.74H35.4596V45H34.7496V40.82L31.2496 45H30.6096V39.74ZM42.2144 39.74V45H41.5044V40.37H38.2044V45H37.4944V39.74H42.2144ZM49.4098 42.26C49.7832 42.3467 50.0698 42.4967 50.2698 42.71C50.4765 42.9233 50.5798 43.1833 50.5798 43.49C50.5798 43.7967 50.4732 44.07 50.2598 44.31C50.0532 44.55 49.7698 44.7367 49.4098 44.87C49.0498 44.9967 48.6532 45.06 48.2198 45.06C47.8398 45.06 47.4665 45.0067 47.0998 44.9C46.7332 44.7867 46.4132 44.6233 46.1398 44.41L46.3798 43.88C46.6198 44.06 46.8998 44.2 47.2198 44.3C47.5398 44.4 47.8632 44.45 48.1898 44.45C48.6765 44.45 49.0732 44.36 49.3798 44.18C49.6932 43.9933 49.8498 43.7433 49.8498 43.43C49.8498 43.15 49.7232 42.9333 49.4698 42.78C49.2165 42.62 48.8698 42.54 48.4298 42.54H47.5298V42.02H48.3898C48.7832 42.02 49.0998 41.9467 49.3398 41.8C49.5798 41.6467 49.6998 41.4433 49.6998 41.19C49.6998 40.91 49.5632 40.69 49.2898 40.53C49.0232 40.37 48.6732 40.29 48.2398 40.29C47.6732 40.29 47.1132 40.4333 46.5598 40.72L46.3598 40.17C46.9865 39.8433 47.6365 39.68 48.3098 39.68C48.7098 39.68 49.0698 39.74 49.3898 39.86C49.7165 39.9733 49.9698 40.1367 50.1498 40.35C50.3365 40.5633 50.4298 40.81 50.4298 41.09C50.4298 41.3567 50.3365 41.5933 50.1498 41.8C49.9698 42.0067 49.7232 42.16 49.4098 42.26ZM54.0016 39.7C54.6883 39.7 55.215 39.8733 55.5816 40.22C55.9483 40.56 56.1316 41.0667 56.1316 41.74V45H55.4516V44.18C55.2916 44.4533 55.055 44.6667 54.7416 44.82C54.435 44.9733 54.0683 45.05 53.6416 45.05C53.055 45.05 52.5883 44.91 52.2416 44.63C51.895 44.35 51.7216 43.98 51.7216 43.52C51.7216 43.0733 51.8816 42.7133 52.2016 42.44C52.5283 42.1667 53.045 42.03 53.7516 42.03H55.4216V41.71C55.4216 41.2567 55.295 40.9133 55.0416 40.68C54.7883 40.44 54.4183 40.32 53.9316 40.32C53.5983 40.32 53.2783 40.3767 52.9716 40.49C52.665 40.5967 52.4016 40.7467 52.1816 40.94L51.8616 40.41C52.1283 40.1833 52.4483 40.01 52.8216 39.89C53.195 39.7633 53.5883 39.7 54.0016 39.7ZM53.7516 44.49C54.1516 44.49 54.495 44.4 54.7816 44.22C55.0683 44.0333 55.2816 43.7667 55.4216 43.42V42.56H53.7716C52.8716 42.56 52.4216 42.8733 52.4216 43.5C52.4216 43.8067 52.5383 44.05 52.7716 44.23C53.005 44.4033 53.3316 44.49 53.7516 44.49ZM60.2217 45.05C59.7017 45.05 59.2351 44.9367 58.8217 44.71C58.4151 44.4833 58.0951 44.1667 57.8617 43.76C57.6284 43.3467 57.5117 42.8833 57.5117 42.37C57.5117 41.8567 57.6284 41.3967 57.8617 40.99C58.0951 40.5833 58.4151 40.2667 58.8217 40.04C59.2351 39.8133 59.7017 39.7 60.2217 39.7C60.6751 39.7 61.0784 39.79 61.4317 39.97C61.7917 40.1433 62.0751 40.4 62.2817 40.74L61.7517 41.1C61.5784 40.84 61.3584 40.6467 61.0917 40.52C60.8251 40.3867 60.5351 40.32 60.2217 40.32C59.8417 40.32 59.4984 40.4067 59.1917 40.58C58.8917 40.7467 58.6551 40.9867 58.4817 41.3C58.3151 41.6133 58.2317 41.97 58.2317 42.37C58.2317 42.7767 58.3151 43.1367 58.4817 43.45C58.6551 43.7567 58.8917 43.9967 59.1917 44.17C59.4984 44.3367 59.8417 44.42 60.2217 44.42C60.5351 44.42 60.8251 44.3567 61.0917 44.23C61.3584 44.1033 61.5784 43.91 61.7517 43.65L62.2817 44.01C62.0751 44.35 61.7917 44.61 61.4317 44.79C61.0717 44.9633 60.6684 45.05 60.2217 45.05ZM67.2588 40.37H65.2688V45H64.5588V40.37H62.5688V39.74H67.2588V40.37ZM70.9954 39.7C71.4887 39.7 71.9354 39.8133 72.3354 40.04C72.7354 40.26 73.0487 40.5733 73.2754 40.98C73.5021 41.3867 73.6154 41.85 73.6154 42.37C73.6154 42.8967 73.5021 43.3633 73.2754 43.77C73.0487 44.1767 72.7354 44.4933 72.3354 44.72C71.9421 44.94 71.4954 45.05 70.9954 45.05C70.5687 45.05 70.1821 44.9633 69.8354 44.79C69.4954 44.61 69.2154 44.35 68.9954 44.01V46.94H68.2854V39.74H68.9654V40.78C69.1787 40.4333 69.4587 40.1667 69.8054 39.98C70.1587 39.7933 70.5554 39.7 70.9954 39.7ZM70.9454 44.42C71.3121 44.42 71.6454 44.3367 71.9454 44.17C72.2454 43.9967 72.4787 43.7533 72.6454 43.44C72.8187 43.1267 72.9054 42.77 72.9054 42.37C72.9054 41.97 72.8187 41.6167 72.6454 41.31C72.4787 40.9967 72.2454 40.7533 71.9454 40.58C71.6454 40.4067 71.3121 40.32 70.9454 40.32C70.5721 40.32 70.2354 40.4067 69.9354 40.58C69.6421 40.7533 69.4087 40.9967 69.2354 41.31C69.0687 41.6167 68.9854 41.97 68.9854 42.37C68.9854 42.77 69.0687 43.1267 69.2354 43.44C69.4087 43.7533 69.6421 43.9967 69.9354 44.17C70.2354 44.3367 70.5721 44.42 70.9454 44.42ZM77.3109 45.05C76.8042 45.05 76.3475 44.9367 75.9409 44.71C75.5342 44.4767 75.2142 44.1567 74.9809 43.75C74.7475 43.3433 74.6309 42.8833 74.6309 42.37C74.6309 41.8567 74.7475 41.3967 74.9809 40.99C75.2142 40.5833 75.5342 40.2667 75.9409 40.04C76.3475 39.8133 76.8042 39.7 77.3109 39.7C77.8175 39.7 78.2742 39.8133 78.6809 40.04C79.0875 40.2667 79.4042 40.5833 79.6309 40.99C79.8642 41.3967 79.9809 41.8567 79.9809 42.37C79.9809 42.8833 79.8642 43.3433 79.6309 43.75C79.4042 44.1567 79.0875 44.4767 78.6809 44.71C78.2742 44.9367 77.8175 45.05 77.3109 45.05ZM77.3109 44.42C77.6842 44.42 78.0175 44.3367 78.3109 44.17C78.6109 43.9967 78.8442 43.7533 79.0109 43.44C79.1775 43.1267 79.2609 42.77 79.2609 42.37C79.2609 41.97 79.1775 41.6133 79.0109 41.3C78.8442 40.9867 78.6109 40.7467 78.3109 40.58C78.0175 40.4067 77.6842 40.32 77.3109 40.32C76.9375 40.32 76.6009 40.4067 76.3009 40.58C76.0075 40.7467 75.7742 40.9867 75.6009 41.3C75.4342 41.6133 75.3509 41.97 75.3509 42.37C75.3509 42.77 75.4342 43.1267 75.6009 43.44C75.7742 43.7533 76.0075 43.9967 76.3009 44.17C76.6009 44.3367 76.9375 44.42 77.3109 44.42ZM81.4983 39.74H82.2083V43.92L85.7183 39.74H86.3483V45H85.6383V40.82L82.1383 45H81.4983V39.74ZM83.8883 38.98C83.4349 38.98 83.0749 38.8667 82.8083 38.64C82.5416 38.4133 82.4049 38.0933 82.3983 37.68H82.9083C82.9149 37.94 83.0083 38.15 83.1883 38.31C83.3683 38.4633 83.6016 38.54 83.8883 38.54C84.1749 38.54 84.4083 38.4633 84.5883 38.31C84.7749 38.15 84.8716 37.94 84.8783 37.68H85.3883C85.3816 38.0933 85.2416 38.4133 84.9683 38.64C84.7016 38.8667 84.3416 38.98 83.8883 38.98ZM95.643 39.74V45H88.383V39.74H89.093V44.38H91.673V39.74H92.383V44.38H94.933V39.74H95.643ZM96.453 44.38V46.15H95.783V45H94.893V44.38H96.453ZM97.6702 39.74H98.3802V43.92L101.89 39.74H102.52V45H101.81V40.82L98.3102 45H97.6702V39.74ZM106.465 42.66H105.265V45H104.555V39.74H105.265V42.05H106.475L108.325 39.74H109.095L107.025 42.29L109.245 45H108.405L106.465 42.66ZM112.078 39.7C112.764 39.7 113.291 39.8733 113.658 40.22C114.024 40.56 114.208 41.0667 114.208 41.74V45H113.528V44.18C113.368 44.4533 113.131 44.6667 112.818 44.82C112.511 44.9733 112.144 45.05 111.718 45.05C111.131 45.05 110.664 44.91 110.318 44.63C109.971 44.35 109.798 43.98 109.798 43.52C109.798 43.0733 109.958 42.7133 110.278 42.44C110.604 42.1667 111.121 42.03 111.828 42.03H113.498V41.71C113.498 41.2567 113.371 40.9133 113.118 40.68C112.864 40.44 112.494 40.32 112.008 40.32C111.674 40.32 111.354 40.3767 111.048 40.49C110.741 40.5967 110.478 40.7467 110.258 40.94L109.938 40.41C110.204 40.1833 110.524 40.01 110.898 39.89C111.271 39.7633 111.664 39.7 112.078 39.7ZM111.828 44.49C112.228 44.49 112.571 44.4 112.858 44.22C113.144 44.0333 113.358 43.7667 113.498 43.42V42.56H111.848C110.948 42.56 110.498 42.8733 110.498 43.5C110.498 43.8067 110.614 44.05 110.848 44.23C111.081 44.4033 111.408 44.49 111.828 44.49Z" fill="white"/>
</svg>
