<svg width="117" height="47" viewBox="0 0 117 47" fill="none" xmlns="http://www.w3.org/2000/svg">
<g clip-path="url(#clip0)">
<path d="M63.4411 15.3565C63.1994 13.8757 62.4612 12.7145 61.1786 11.9156C60.2837 11.3589 59.3011 11.042 58.2787 10.8369C57.8273 10.7464 57.3705 10.6825 56.8713 10.5972C57.9468 10.4481 58.9479 10.2217 59.8933 9.77962C60.9874 9.26561 61.8664 8.52522 62.3497 7.38267C62.7029 6.54907 62.7825 5.67285 62.6922 4.78066C62.586 3.74997 62.1983 2.8418 61.4601 2.09875C60.6873 1.32374 59.734 0.876306 58.701 0.575356C57.2803 0.162549 55.8224 0.0533554 54.3539 0.0400391C54.3246 0.0400391 54.2981 0.0506921 54.2715 0.0560187C54.2715 0.14657 54.2715 0.229131 54.2715 0.306366C54.2901 0.314356 54.3007 0.322346 54.3114 0.322346C54.3592 0.325009 54.407 0.327672 54.4548 0.330335C55.509 0.383601 56.3614 0.796408 56.8872 1.7472C57.0545 2.04814 57.1847 2.37839 57.2829 2.7113C57.591 3.76862 57.6122 4.85789 57.5803 5.94983C57.5564 6.80208 57.4635 7.64101 57.174 8.44798C56.7943 9.50264 56.1039 10.2137 54.9673 10.4161C54.7389 10.4561 54.5052 10.4694 54.2768 10.4934H50.7556V0.0506921H45.5242V0.319682H49.9961C49.9961 0.319682 45.973 1.07072 45.973 6.22149C45.973 10.496 45.973 14.7679 45.973 19.0425C45.973 20.5739 45.0435 21.9321 43.6069 22.4648C43.2643 22.5926 42.8926 22.6485 42.5234 22.7391C42.5234 22.7897 42.5234 22.8723 42.5234 22.9628H45.3569H50.3944V22.6725H47.0989C49.2234 21.9454 50.7529 19.9267 50.7529 17.5484V10.7624H54.314C54.4973 10.7757 54.6725 10.7837 54.8425 10.7997C56.0932 10.9222 57.0598 11.4868 57.66 12.6213C57.9123 13.0981 58.0743 13.6041 58.1858 14.1314C58.4381 15.3485 58.4593 16.5789 58.3876 17.8147C58.3372 18.6776 58.2097 19.5245 57.8937 20.3342C57.4874 21.3755 56.8102 22.1399 55.7188 22.4834C55.2275 22.6379 54.723 22.6912 54.2105 22.6858C53.9555 22.6832 53.6979 22.6858 53.443 22.6858C53.443 22.795 53.443 22.8802 53.443 22.9681C53.4802 22.9708 53.5041 22.9735 53.528 22.9735C54.8 22.9868 56.072 22.9628 57.336 22.7844C58.4142 22.6326 59.4684 22.3929 60.4642 21.9268C61.8106 21.2983 62.8011 20.3368 63.2526 18.8907C63.6137 17.7321 63.635 16.5443 63.4411 15.3565Z" fill="white"/>
<path d="M16.6262 19.4474C16.5943 19.5087 16.5677 19.562 16.5412 19.6152C16.0074 20.6326 15.2586 21.4369 14.2335 21.9749C13.3174 22.4569 12.3322 22.654 11.3071 22.686C10.5556 22.7073 9.83861 22.5715 9.16145 22.2412C8.13375 21.7378 7.39817 20.9282 6.82723 19.9561C6.18724 18.8642 5.81547 17.6764 5.56319 16.4459C5.23656 14.848 5.12768 13.2287 5.12503 11.6014C5.12237 9.6466 5.25515 7.70508 5.74642 5.8035C6.09164 4.46388 6.5962 3.19616 7.49111 2.1202C8.36479 1.07087 9.46418 0.426362 10.8424 0.3438C11.2089 0.322494 11.5567 0.3438 11.8887 0.402392V1.97372V2.03764C11.8887 4.08037 13.1766 5.82481 14.985 6.49063H11.8887V6.78092H16.6182H16.6421C16.7111 6.78092 16.7855 6.78092 16.8652 6.78092C16.8652 6.68505 16.8652 6.58651 16.8652 6.49063C16.8652 4.98055 16.8652 3.47581 16.8652 1.97372C16.8652 1.3372 16.8652 0.698015 16.8652 0.0614935C16.6129 0.0242078 16.6129 0.0242077 16.4934 0.223953C16.281 0.580831 15.9703 0.77525 15.556 0.804546C15.0753 0.839168 14.6186 0.708668 14.1565 0.599474C13.4528 0.431688 12.7491 0.247922 12.0374 0.117422C11.254 -0.0263944 10.4574 0.0428506 9.66866 0.106769C8.29309 0.2133 6.96266 0.49827 5.69597 1.05223C4.16638 1.72071 2.90234 2.72476 1.949 4.107C1.13375 5.28683 0.637165 6.59982 0.339745 7.99538C0.0423244 9.39892 -0.0373418 10.8211 0.0131135 12.2486C0.0715353 13.8945 0.326467 15.5031 0.947864 17.0372C1.94104 19.49 3.66714 21.1999 6.13148 22.14C7.95849 22.8378 9.86251 23.0588 11.8064 22.939C12.927 22.8697 13.968 22.5288 14.908 21.9003C15.7923 21.3117 16.4297 20.5207 16.8731 19.538C16.7882 19.5087 16.7111 19.4794 16.6262 19.4474Z" fill="white"/>
<path d="M32.4775 22.39L32.3075 22.4007C32.0552 22.4167 31.8003 22.3954 31.5454 22.3368C31.5321 22.3341 31.5188 22.3315 31.5109 22.3288C30.4088 22.0412 29.4953 21.4233 28.7039 20.603C27.7241 19.5883 27.0416 18.4138 26.4839 17.1807C25.8625 15.8038 25.435 14.3896 25.0977 12.9621C24.787 11.6464 24.5587 10.3281 24.4312 9.00445C24.3143 7.80065 24.2904 6.61017 24.4365 5.44099C24.564 4.42629 24.8162 3.45685 25.3155 2.59129C25.5173 2.23974 25.7404 1.85889 26.0165 1.58191C26.221 1.37684 26.4547 1.20639 26.7096 1.0679L26.5769 0.604492C26.0537 0.766952 25.5412 0.964034 25.042 1.21172C23.0928 2.1705 21.696 3.66459 20.8143 5.64873C20.2168 6.99101 19.9115 8.41054 19.7946 9.86735C19.6353 11.8701 19.7256 13.8569 20.2567 15.8064C20.5541 16.8984 20.9976 17.9291 21.6322 18.8665C22.8379 20.6456 24.5109 21.7802 26.537 22.414C27.4293 22.6937 28.3428 22.8561 29.2696 22.944C29.4661 22.9626 29.6626 22.9706 29.8591 22.984H30.3106H31.556H31.8269C32.0234 22.9706 32.2199 22.9626 32.4164 22.944C32.6049 22.9254 32.7908 22.9041 32.9794 22.8801L32.8333 22.3687L32.4775 22.39Z" fill="white"/>
<path d="M41.8968 9.86469C41.78 8.40788 41.4746 6.99102 40.8771 5.64607C39.9954 3.65927 38.5986 2.16783 36.6495 1.20906C35.4465 0.615148 34.1692 0.287566 32.8414 0.125107C31.9279 0.0132492 31.2932 -0.0053937 30.8922 0.00259611C30.4461 -0.0053937 29.761 0.0159124 28.8475 0.125107C28.6749 0.146413 28.5049 0.170382 28.335 0.197015L28.4598 0.617812L29.0785 0.580526C29.9548 0.52726 30.8737 0.740322 31.6624 1.23569C32.0394 1.47272 32.4059 1.81628 32.7405 2.13588C33.569 2.92154 34.1957 3.83504 34.7189 4.81246C35.3217 5.93636 35.7652 7.10021 36.1263 8.28803C36.522 9.59303 36.8168 10.9087 37.0319 12.2297C37.2655 13.6652 37.4036 15.098 37.3399 16.5149C37.2815 17.7879 37.0797 19.0157 36.5193 20.1236C36.113 20.9306 35.5474 21.5857 34.7375 22.0119L34.8809 22.4966C34.9712 22.4699 35.0588 22.446 35.1491 22.4167C37.1779 21.7802 38.8482 20.6483 40.0539 18.8665C40.6912 17.9264 41.132 16.8984 41.4294 15.8064C41.9658 13.8543 42.0561 11.8675 41.8968 9.86469Z" fill="white"/>
<path d="M67.7378 0.290386H72.0902C72.0902 0.290386 68.4229 0.980173 68.0936 5.52637C68.0936 10.0699 68.0936 14.6108 68.091 19.1543C68.091 19.3195 68.0803 19.4846 68.0458 19.647C67.7378 21.1624 66.8269 22.1319 65.3637 22.5793C65.2017 22.6299 65.0318 22.6512 64.8592 22.6752H64.668V22.9655H72.7196V22.6752H69.9472C71.6627 22.0386 72.8842 20.3848 72.8842 18.4432V0.0107422H67.7351V0.290386H67.7378Z" fill="white"/>
<path d="M84.6824 16.9622C83.4582 14.6904 81.0894 13.2762 78.5162 13.2762H78.2082C78.2135 13.2762 78.2161 13.2762 78.2215 13.2736C79.512 13.0392 80.7416 12.6424 81.8436 11.9073C82.7757 11.2841 83.5007 10.4798 83.9574 9.4491C84.523 8.16807 84.6266 6.83111 84.377 5.46219C84.146 4.18648 83.5538 3.10253 82.5951 2.22365C81.6444 1.35276 80.5079 0.830763 79.281 0.492528C77.9984 0.138313 76.6866 0.0104758 75.3588 0.0078125C75.3136 0.0078125 75.2685 0.013139 75.2207 0.0184656C75.2207 0.11168 75.2207 0.188915 75.2207 0.298109C75.2977 0.298109 75.3614 0.290119 75.4225 0.298109C75.789 0.348711 76.1608 0.367354 76.5166 0.460568C77.5894 0.740212 78.2825 1.45663 78.7127 2.45536C79.1297 3.41946 79.2704 4.44216 79.3394 5.47551C79.4058 6.49288 79.4005 7.51557 79.3023 8.53294C79.2252 9.33458 79.0898 10.1229 78.803 10.8793C78.2878 12.2375 77.3478 13.0605 75.8819 13.223C75.6642 13.2469 75.4438 13.2576 75.226 13.2736C75.226 13.3614 75.226 13.4387 75.226 13.5239C75.2871 13.5239 75.3322 13.5239 75.38 13.5239C75.4597 13.5212 75.5394 13.5212 75.619 13.5186C76.5113 13.4919 77.3425 13.974 77.7674 14.7623L80.2821 19.4204C81.1558 21.0397 82.6323 22.2062 84.3451 22.7095H81.6869V22.9998H87.0856V22.9838H87.9327L84.6824 16.9622Z" fill="white"/>
<path d="M111.652 22.6617C110.81 22.5498 110.067 22.1983 109.392 21.6976C108.497 21.0318 107.807 20.2088 107.512 19.1062C106.264 14.4295 105.018 9.75281 103.773 5.07611V5.07877C102.705 1.06522 98.9718 0.434026 97.66 0.338148V0.322168H101.765V0.0478516C99.2612 0.0478516 96.7677 0.0478516 94.2715 0.0478516C94.2715 0.143729 94.2715 0.231617 94.2715 0.324832C95.0894 0.359454 95.817 0.641761 96.4809 1.08386C97.5564 1.79762 98.3477 2.7271 98.6876 4.00547C99.0515 5.37173 99.4206 6.73532 99.7844 8.10158L99.7817 8.09892L100.828 12.3522L101.333 14.4029L101.534 15.2232L101.553 15.3031L102.055 17.3378C102.185 18.0036 102.413 18.6321 102.724 19.2101C103.738 21.0957 105.627 22.43 107.778 22.7123H104.487V22.9573C106.992 22.9573 109.493 22.9573 111.992 22.9573C111.992 22.8614 111.992 22.7789 111.992 22.691C111.878 22.683 111.764 22.6777 111.652 22.6617Z" fill="white"/>
<path d="M94.6888 19.1863C94.8083 18.7815 94.9464 18.3074 95.0924 17.8067L97.0681 10.4028C96.4202 10.4028 92.2855 10.4082 92.2855 10.4082L90.1133 18.4326L90.1027 18.4725C89.63 20.0785 90.0549 21.4874 91.0799 22.2863C91.6455 22.7258 92.3917 22.9841 93.276 22.9841H96.9965C97.023 22.8962 97.0469 22.8163 97.0708 22.7338C96.8477 22.6938 96.6141 22.6778 96.4122 22.6086C95.0792 22.1612 94.4551 21.1917 94.5905 19.6763C94.6012 19.5165 94.6383 19.3514 94.6888 19.1863Z" fill="white"/>
</g>
<path d="M7.67 35V42H6.94V35.64H3.56L3.48 37.98C3.44667 38.9467 3.36667 39.7267 3.24 40.32C3.12 40.9067 2.93333 41.3467 2.68 41.64C2.42667 41.9267 2.09 42.07 1.67 42.07C1.49 42.07 1.30333 42.0467 1.11 42L1.17 41.34C1.28333 41.3667 1.39333 41.38 1.5 41.38C1.79333 41.38 2.03 41.2633 2.21 41.03C2.39667 40.7967 2.53667 40.4367 2.63 39.95C2.72333 39.4567 2.78667 38.8067 2.82 38L2.92 35H7.67ZM12.0316 42.05C11.5249 42.05 11.0682 41.9367 10.6616 41.71C10.2549 41.4767 9.9349 41.1567 9.70156 40.75C9.46823 40.3433 9.35156 39.8833 9.35156 39.37C9.35156 38.8567 9.46823 38.3967 9.70156 37.99C9.9349 37.5833 10.2549 37.2667 10.6616 37.04C11.0682 36.8133 11.5249 36.7 12.0316 36.7C12.5382 36.7 12.9949 36.8133 13.4016 37.04C13.8082 37.2667 14.1249 37.5833 14.3516 37.99C14.5849 38.3967 14.7016 38.8567 14.7016 39.37C14.7016 39.8833 14.5849 40.3433 14.3516 40.75C14.1249 41.1567 13.8082 41.4767 13.4016 41.71C12.9949 41.9367 12.5382 42.05 12.0316 42.05ZM12.0316 41.42C12.4049 41.42 12.7382 41.3367 13.0316 41.17C13.3316 40.9967 13.5649 40.7533 13.7316 40.44C13.8982 40.1267 13.9816 39.77 13.9816 39.37C13.9816 38.97 13.8982 38.6133 13.7316 38.3C13.5649 37.9867 13.3316 37.7467 13.0316 37.58C12.7382 37.4067 12.4049 37.32 12.0316 37.32C11.6582 37.32 11.3216 37.4067 11.0216 37.58C10.7282 37.7467 10.4949 37.9867 10.3216 38.3C10.1549 38.6133 10.0716 38.97 10.0716 39.37C10.0716 39.77 10.1549 40.1267 10.3216 40.44C10.4949 40.7533 10.7282 40.9967 11.0216 41.17C11.3216 41.3367 11.6582 41.42 12.0316 41.42ZM19.939 37.37H16.929V42H16.219V36.74H19.939V37.37ZM22.8909 42.05C22.3843 42.05 21.9276 41.9367 21.5209 41.71C21.1143 41.4767 20.7943 41.1567 20.5609 40.75C20.3276 40.3433 20.2109 39.8833 20.2109 39.37C20.2109 38.8567 20.3276 38.3967 20.5609 37.99C20.7943 37.5833 21.1143 37.2667 21.5209 37.04C21.9276 36.8133 22.3843 36.7 22.8909 36.7C23.3976 36.7 23.8543 36.8133 24.2609 37.04C24.6676 37.2667 24.9843 37.5833 25.2109 37.99C25.4443 38.3967 25.5609 38.8567 25.5609 39.37C25.5609 39.8833 25.4443 40.3433 25.2109 40.75C24.9843 41.1567 24.6676 41.4767 24.2609 41.71C23.8543 41.9367 23.3976 42.05 22.8909 42.05ZM22.8909 41.42C23.2643 41.42 23.5976 41.3367 23.8909 41.17C24.1909 40.9967 24.4243 40.7533 24.5909 40.44C24.7576 40.1267 24.8409 39.77 24.8409 39.37C24.8409 38.97 24.7576 38.6133 24.5909 38.3C24.4243 37.9867 24.1909 37.7467 23.8909 37.58C23.5976 37.4067 23.2643 37.32 22.8909 37.32C22.5176 37.32 22.1809 37.4067 21.8809 37.58C21.5876 37.7467 21.3543 37.9867 21.1809 38.3C21.0143 38.6133 20.9309 38.97 20.9309 39.37C20.9309 39.77 21.0143 40.1267 21.1809 40.44C21.3543 40.7533 21.5876 40.9967 21.8809 41.17C22.1809 41.3367 22.5176 41.42 22.8909 41.42ZM30.583 37.37H28.593V42H27.883V37.37H25.893V36.74H30.583V37.37ZM31.6096 36.74H32.3196V40.92L35.8296 36.74H36.4596V42H35.7496V37.82L32.2496 42H31.6096V36.74ZM43.2144 36.74V42H42.5044V37.37H39.2044V42H38.4944V36.74H43.2144ZM50.4098 39.26C50.7832 39.3467 51.0698 39.4967 51.2698 39.71C51.4765 39.9233 51.5798 40.1833 51.5798 40.49C51.5798 40.7967 51.4732 41.07 51.2598 41.31C51.0532 41.55 50.7698 41.7367 50.4098 41.87C50.0498 41.9967 49.6532 42.06 49.2198 42.06C48.8398 42.06 48.4665 42.0067 48.0998 41.9C47.7332 41.7867 47.4132 41.6233 47.1398 41.41L47.3798 40.88C47.6198 41.06 47.8998 41.2 48.2198 41.3C48.5398 41.4 48.8632 41.45 49.1898 41.45C49.6765 41.45 50.0732 41.36 50.3798 41.18C50.6932 40.9933 50.8498 40.7433 50.8498 40.43C50.8498 40.15 50.7232 39.9333 50.4698 39.78C50.2165 39.62 49.8698 39.54 49.4298 39.54H48.5298V39.02H49.3898C49.7832 39.02 50.0998 38.9467 50.3398 38.8C50.5798 38.6467 50.6998 38.4433 50.6998 38.19C50.6998 37.91 50.5632 37.69 50.2898 37.53C50.0232 37.37 49.6732 37.29 49.2398 37.29C48.6732 37.29 48.1132 37.4333 47.5598 37.72L47.3598 37.17C47.9865 36.8433 48.6365 36.68 49.3098 36.68C49.7098 36.68 50.0698 36.74 50.3898 36.86C50.7165 36.9733 50.9698 37.1367 51.1498 37.35C51.3365 37.5633 51.4298 37.81 51.4298 38.09C51.4298 38.3567 51.3365 38.5933 51.1498 38.8C50.9698 39.0067 50.7232 39.16 50.4098 39.26ZM55.0016 36.7C55.6883 36.7 56.215 36.8733 56.5816 37.22C56.9483 37.56 57.1316 38.0667 57.1316 38.74V42H56.4516V41.18C56.2916 41.4533 56.055 41.6667 55.7416 41.82C55.435 41.9733 55.0683 42.05 54.6416 42.05C54.055 42.05 53.5883 41.91 53.2416 41.63C52.895 41.35 52.7216 40.98 52.7216 40.52C52.7216 40.0733 52.8816 39.7133 53.2016 39.44C53.5283 39.1667 54.045 39.03 54.7516 39.03H56.4216V38.71C56.4216 38.2567 56.295 37.9133 56.0416 37.68C55.7883 37.44 55.4183 37.32 54.9316 37.32C54.5983 37.32 54.2783 37.3767 53.9716 37.49C53.665 37.5967 53.4016 37.7467 53.1816 37.94L52.8616 37.41C53.1283 37.1833 53.4483 37.01 53.8216 36.89C54.195 36.7633 54.5883 36.7 55.0016 36.7ZM54.7516 41.49C55.1516 41.49 55.495 41.4 55.7816 41.22C56.0683 41.0333 56.2816 40.7667 56.4216 40.42V39.56H54.7716C53.8716 39.56 53.4216 39.8733 53.4216 40.5C53.4216 40.8067 53.5383 41.05 53.7716 41.23C54.005 41.4033 54.3316 41.49 54.7516 41.49ZM61.2217 42.05C60.7017 42.05 60.2351 41.9367 59.8217 41.71C59.4151 41.4833 59.0951 41.1667 58.8617 40.76C58.6284 40.3467 58.5117 39.8833 58.5117 39.37C58.5117 38.8567 58.6284 38.3967 58.8617 37.99C59.0951 37.5833 59.4151 37.2667 59.8217 37.04C60.2351 36.8133 60.7017 36.7 61.2217 36.7C61.6751 36.7 62.0784 36.79 62.4317 36.97C62.7917 37.1433 63.0751 37.4 63.2817 37.74L62.7517 38.1C62.5784 37.84 62.3584 37.6467 62.0917 37.52C61.8251 37.3867 61.5351 37.32 61.2217 37.32C60.8417 37.32 60.4984 37.4067 60.1917 37.58C59.8917 37.7467 59.6551 37.9867 59.4817 38.3C59.3151 38.6133 59.2317 38.97 59.2317 39.37C59.2317 39.7767 59.3151 40.1367 59.4817 40.45C59.6551 40.7567 59.8917 40.9967 60.1917 41.17C60.4984 41.3367 60.8417 41.42 61.2217 41.42C61.5351 41.42 61.8251 41.3567 62.0917 41.23C62.3584 41.1033 62.5784 40.91 62.7517 40.65L63.2817 41.01C63.0751 41.35 62.7917 41.61 62.4317 41.79C62.0717 41.9633 61.6684 42.05 61.2217 42.05ZM68.2588 37.37H66.2688V42H65.5588V37.37H63.5688V36.74H68.2588V37.37ZM71.9954 36.7C72.4887 36.7 72.9354 36.8133 73.3354 37.04C73.7354 37.26 74.0487 37.5733 74.2754 37.98C74.5021 38.3867 74.6154 38.85 74.6154 39.37C74.6154 39.8967 74.5021 40.3633 74.2754 40.77C74.0487 41.1767 73.7354 41.4933 73.3354 41.72C72.9421 41.94 72.4954 42.05 71.9954 42.05C71.5687 42.05 71.1821 41.9633 70.8354 41.79C70.4954 41.61 70.2154 41.35 69.9954 41.01V43.94H69.2854V36.74H69.9654V37.78C70.1787 37.4333 70.4587 37.1667 70.8054 36.98C71.1587 36.7933 71.5554 36.7 71.9954 36.7ZM71.9454 41.42C72.3121 41.42 72.6454 41.3367 72.9454 41.17C73.2454 40.9967 73.4787 40.7533 73.6454 40.44C73.8187 40.1267 73.9054 39.77 73.9054 39.37C73.9054 38.97 73.8187 38.6167 73.6454 38.31C73.4787 37.9967 73.2454 37.7533 72.9454 37.58C72.6454 37.4067 72.3121 37.32 71.9454 37.32C71.5721 37.32 71.2354 37.4067 70.9354 37.58C70.6421 37.7533 70.4087 37.9967 70.2354 38.31C70.0687 38.6167 69.9854 38.97 69.9854 39.37C69.9854 39.77 70.0687 40.1267 70.2354 40.44C70.4087 40.7533 70.6421 40.9967 70.9354 41.17C71.2354 41.3367 71.5721 41.42 71.9454 41.42ZM78.3109 42.05C77.8042 42.05 77.3475 41.9367 76.9409 41.71C76.5342 41.4767 76.2142 41.1567 75.9809 40.75C75.7475 40.3433 75.6309 39.8833 75.6309 39.37C75.6309 38.8567 75.7475 38.3967 75.9809 37.99C76.2142 37.5833 76.5342 37.2667 76.9409 37.04C77.3475 36.8133 77.8042 36.7 78.3109 36.7C78.8175 36.7 79.2742 36.8133 79.6809 37.04C80.0875 37.2667 80.4042 37.5833 80.6309 37.99C80.8642 38.3967 80.9809 38.8567 80.9809 39.37C80.9809 39.8833 80.8642 40.3433 80.6309 40.75C80.4042 41.1567 80.0875 41.4767 79.6809 41.71C79.2742 41.9367 78.8175 42.05 78.3109 42.05ZM78.3109 41.42C78.6842 41.42 79.0175 41.3367 79.3109 41.17C79.6109 40.9967 79.8442 40.7533 80.0109 40.44C80.1775 40.1267 80.2609 39.77 80.2609 39.37C80.2609 38.97 80.1775 38.6133 80.0109 38.3C79.8442 37.9867 79.6109 37.7467 79.3109 37.58C79.0175 37.4067 78.6842 37.32 78.3109 37.32C77.9375 37.32 77.6009 37.4067 77.3009 37.58C77.0075 37.7467 76.7742 37.9867 76.6009 38.3C76.4342 38.6133 76.3509 38.97 76.3509 39.37C76.3509 39.77 76.4342 40.1267 76.6009 40.44C76.7742 40.7533 77.0075 40.9967 77.3009 41.17C77.6009 41.3367 77.9375 41.42 78.3109 41.42ZM82.4983 36.74H83.2083V40.92L86.7183 36.74H87.3483V42H86.6383V37.82L83.1383 42H82.4983V36.74ZM84.8883 35.98C84.4349 35.98 84.0749 35.8667 83.8083 35.64C83.5416 35.4133 83.4049 35.0933 83.3983 34.68H83.9083C83.9149 34.94 84.0083 35.15 84.1883 35.31C84.3683 35.4633 84.6016 35.54 84.8883 35.54C85.1749 35.54 85.4083 35.4633 85.5883 35.31C85.7749 35.15 85.8716 34.94 85.8783 34.68H86.3883C86.3816 35.0933 86.2416 35.4133 85.9683 35.64C85.7016 35.8667 85.3416 35.98 84.8883 35.98ZM96.643 36.74V42H89.383V36.74H90.093V41.38H92.673V36.74H93.383V41.38H95.933V36.74H96.643ZM97.453 41.38V43.15H96.783V42H95.893V41.38H97.453ZM98.6702 36.74H99.3802V40.92L102.89 36.74H103.52V42H102.81V37.82L99.3102 42H98.6702V36.74ZM107.465 39.66H106.265V42H105.555V36.74H106.265V39.05H107.475L109.325 36.74H110.095L108.025 39.29L110.245 42H109.405L107.465 39.66ZM113.078 36.7C113.764 36.7 114.291 36.8733 114.658 37.22C115.024 37.56 115.208 38.0667 115.208 38.74V42H114.528V41.18C114.368 41.4533 114.131 41.6667 113.818 41.82C113.511 41.9733 113.144 42.05 112.718 42.05C112.131 42.05 111.664 41.91 111.318 41.63C110.971 41.35 110.798 40.98 110.798 40.52C110.798 40.0733 110.958 39.7133 111.278 39.44C111.604 39.1667 112.121 39.03 112.828 39.03H114.498V38.71C114.498 38.2567 114.371 37.9133 114.118 37.68C113.864 37.44 113.494 37.32 113.008 37.32C112.674 37.32 112.354 37.3767 112.048 37.49C111.741 37.5967 111.478 37.7467 111.258 37.94L110.938 37.41C111.204 37.1833 111.524 37.01 111.898 36.89C112.271 36.7633 112.664 36.7 113.078 36.7ZM112.828 41.49C113.228 41.49 113.571 41.4 113.858 41.22C114.144 41.0333 114.358 40.7667 114.498 40.42V39.56H112.848C111.948 39.56 111.498 39.8733 111.498 40.5C111.498 40.8067 111.614 41.05 111.848 41.23C112.081 41.4033 112.408 41.49 112.828 41.49Z" fill="white"/>
<defs>
<clipPath id="clip0">
<rect width="112" height="23" fill="white"/>
</clipPath>
</defs>
</svg>
