<svg width="781" height="812" viewBox="0 0 781 812" fill="none" xmlns="http://www.w3.org/2000/svg">
<circle cx="386.983" cy="409.469" r="325.065" fill="#FFB891" fill-opacity="0.1"/>
<circle cx="386.983" cy="409.469" r="324.565" stroke="#FFB891" stroke-opacity="0.2"/>
<path d="M780.5 440.762C780.5 645.482 616.272 811.431 413.698 811.431C211.123 811.431 46.8955 645.482 46.8955 440.762C46.8955 236.043 211.123 70.0935 413.698 70.0935C616.272 70.0935 780.5 236.043 780.5 440.762Z" stroke="#FFB891" stroke-opacity="0.2"/>
<path d="M734.104 371.169C734.104 575.888 569.877 741.837 367.302 741.837C164.728 741.837 0.5 575.888 0.5 371.169C0.5 166.449 164.728 0.5 367.302 0.5C569.877 0.5 734.104 166.449 734.104 371.169Z" stroke="#FFB891" stroke-opacity="0.2"/>
</svg>
