<svg width="38" height="28" viewBox="0 0 38 28" fill="none" xmlns="http://www.w3.org/2000/svg">
<path fill-rule="evenodd" clip-rule="evenodd" d="M11.2804 5.4501C10.8586 7.089 9.37085 8.30004 7.60021 8.30004C5.50155 8.30004 3.80029 6.59878 3.80029 4.50012C3.80029 2.40146 5.50155 0.700195 7.60021 0.700195C9.37085 0.700195 10.8586 1.91123 11.2804 3.55014H37.0502C37.5747 3.55014 38.0002 3.9754 38.0002 4.50012C38.0002 5.02483 37.5747 5.4501 37.0502 5.4501H11.2804ZM9.50017 4.50012C9.50017 5.54955 8.64944 6.40008 7.60021 6.40008C6.55098 6.40008 5.70025 5.54935 5.70025 4.50012C5.70025 3.45089 6.55098 2.60016 7.60021 2.60016C8.64944 2.60016 9.50017 3.45069 9.50017 4.50012Z" fill="white"/>
<path d="M0.94998 5.45025H3.91962C3.84142 5.14669 3.79992 4.82829 3.79992 4.50027C3.79992 4.17225 3.84142 3.85385 3.91962 3.55029H0.94998C0.425265 3.55029 0 3.97556 0 4.50027C0 5.02499 0.425265 5.45025 0.94998 5.45025Z" fill="white"/>
<path fill-rule="evenodd" clip-rule="evenodd" d="M22.6802 22.5501C22.2584 20.9112 20.7704 19.7002 19 19.7002C17.2296 19.7002 15.7414 20.9112 15.3198 22.5501H0.94998C0.425265 22.5501 0 22.9756 0 23.5001C0 24.0246 0.425265 24.4501 0.94998 24.4501H15.3196C15.7414 26.089 17.2294 27.3 18.9998 27.3C20.7702 27.3 22.2584 26.089 22.68 24.4501H37.0496C37.5741 24.4501 37.9996 24.0246 37.9996 23.5001C37.9996 22.9756 37.5741 22.5501 37.0496 22.5501H22.6802ZM19 25.4001C20.0494 25.4001 20.9 24.5495 20.9 23.5001C20.9 22.4507 20.0494 21.6002 19 21.6002C17.9506 21.6002 17.1 22.4507 17.1 23.5001C17.1 24.5495 17.9506 25.4001 19 25.4001Z" fill="white"/>
<path fill-rule="evenodd" clip-rule="evenodd" d="M34.0802 13.0501C33.6583 11.4112 32.1704 10.2002 30.4 10.2002C28.6295 10.2002 27.1414 11.4112 26.7197 13.0501H0.94998C0.425265 13.0501 0 13.4756 0 14.0001C0 14.5246 0.425265 14.9501 0.94998 14.9501H26.7197C27.1416 16.589 28.6295 17.8 30.4 17.8C32.1704 17.8 33.6585 16.589 34.0802 14.9501H37.0498C37.5743 14.9501 37.9998 14.5246 37.9998 14.0001C37.9998 13.4756 37.5743 13.0501 37.0498 13.0501H34.0802ZM30.4 15.9001C31.4494 15.9001 32.2999 15.0495 32.2999 14.0001C32.2999 12.9507 31.4492 12.1002 30.4 12.1002C29.3505 12.1002 28.5 12.9507 28.5 14.0001C28.5 15.0495 29.3505 15.9001 30.4 15.9001Z" fill="white"/>
</svg>
